<svg width="232" height="229" viewBox="0 0 232 229" fill="none" xmlns="http://www.w3.org/2000/svg">
<g style="mix-blend-mode:screen">
<path d="M53.1919 100.127L53.1931 100.127C57.8015 102.04 62.9193 103.06 68.163 103.06H76.026H78.0551H78.3984V102.716V100.695V85.407V83.3855V83.0422H78.0551H76.026H68.163C65.5415 83.0422 63.0562 82.5445 60.953 81.5585L60.9466 81.5555L60.94 81.5528C58.5665 80.5571 56.449 79.1908 54.7084 77.4567C52.9621 75.717 51.4677 73.6071 50.4722 71.2533C49.5945 69.0038 48.9756 66.6488 48.9756 64.1809V64.0546V63.9282C48.9756 61.4447 49.4745 58.969 50.4646 56.8731L50.4676 56.8667L50.4704 56.8602C51.4696 54.4958 52.841 52.3864 54.5816 50.6524C56.3297 48.9109 58.4449 47.426 60.7987 46.5621L60.7987 46.5621L60.8045 46.5599C63.0613 45.6856 65.5546 45.0669 68.0361 45.0669C70.6536 45.0669 73.0157 45.5631 75.2529 46.5537L75.2528 46.5538L75.2591 46.5564C77.6327 47.552 79.7501 48.9184 81.4907 50.6524C83.2388 52.394 84.7291 54.501 85.5961 56.8456L85.5984 56.8513C86.4759 59.0995 87.0967 61.583 87.0967 64.0546V93.1141V122.174C87.0967 127.398 88.1199 132.497 90.0402 137.089L90.0407 137.09C92.0868 141.931 94.9017 146.138 98.6117 149.834C102.194 153.403 106.544 156.334 111.403 158.372L111.405 158.373C116.013 160.286 121.131 161.305 126.375 161.305C131.618 161.305 136.736 160.286 141.344 158.373L141.349 158.371C146.076 156.334 150.425 153.532 154.137 149.834C157.72 146.265 160.662 141.932 162.708 137.09L162.709 137.089C164.333 133.229 165.347 129.006 165.632 124.538H165.779V124.195V122.174V121.416L165.779 120.91L165.779 120.901C165.651 116.055 164.627 111.592 162.836 107.26L162.834 107.254C160.789 102.544 157.976 98.2114 154.264 94.5134C150.681 90.9442 146.332 88.0134 141.472 85.9749L141.471 85.9744C136.863 84.0614 131.745 83.0422 126.501 83.0422H118.638H116.609H116.266V83.3855V85.407V100.695V102.716V103.06H116.609H118.638H126.501C129.123 103.06 131.608 103.557 133.711 104.543L133.718 104.546L133.724 104.549C136.097 105.545 138.211 106.909 139.948 108.763L139.948 108.763L139.956 108.771C141.702 110.511 143.197 112.621 144.192 114.975C145.07 117.224 145.689 119.579 145.689 122.047V122.174V122.3C145.689 124.783 145.19 127.259 144.2 129.355L144.197 129.361L144.194 129.368C143.195 131.732 141.823 133.842 140.083 135.576C138.335 137.317 136.219 138.802 133.866 139.666L133.866 139.666L133.86 139.668C131.603 140.543 129.11 141.161 126.628 141.161C124.136 141.161 121.648 140.665 119.411 139.674L119.411 139.674L119.405 139.672C117.032 138.676 114.914 137.31 113.174 135.576C111.426 133.834 109.935 131.727 109.068 129.383L109.066 129.377C108.188 127.129 107.568 124.645 107.568 122.174V93.1141V64.0546C107.568 58.8301 106.544 53.7311 104.624 49.1397L104.624 49.1385C102.577 44.2973 99.7626 40.0905 96.0526 36.3944C92.4702 32.8254 88.1214 29.8948 83.262 27.8563C80.8892 26.8433 78.3229 26.1298 75.7401 25.6267C86.743 20.5097 99.16 17.7763 112.297 17.7763C162.584 17.7763 203.266 58.3071 203.266 108.402C203.266 158.497 162.584 199.028 112.297 199.028C62.0102 199.028 21.3283 158.497 21.3283 108.402C21.3283 95.0636 24.194 82.3225 29.4592 70.9873C29.9657 73.68 30.6965 76.3608 31.831 78.8487C33.877 83.6881 36.6913 87.8935 40.4002 91.5885C43.9829 95.1576 48.3321 98.0884 53.1919 100.127Z" fill="url(#paint0_linear_1104_7801)"/>
<path d="M53.1919 100.127L53.1931 100.127C57.8015 102.04 62.9193 103.06 68.163 103.06H76.026H78.0551H78.3984V102.716V100.695V85.407V83.3855V83.0422H78.0551H76.026H68.163C65.5415 83.0422 63.0562 82.5445 60.953 81.5585L60.9466 81.5555L60.94 81.5528C58.5665 80.5571 56.449 79.1908 54.7084 77.4567C52.9621 75.717 51.4677 73.6071 50.4722 71.2533C49.5945 69.0038 48.9756 66.6488 48.9756 64.1809V64.0546V63.9282C48.9756 61.4447 49.4745 58.969 50.4646 56.8731L50.4676 56.8667L50.4704 56.8602C51.4696 54.4958 52.841 52.3864 54.5816 50.6524C56.3297 48.9109 58.4449 47.426 60.7987 46.5621L60.7987 46.5621L60.8045 46.5599C63.0613 45.6856 65.5546 45.0669 68.0361 45.0669C70.6536 45.0669 73.0157 45.5631 75.2529 46.5537L75.2528 46.5538L75.2591 46.5564C77.6327 47.552 79.7501 48.9184 81.4907 50.6524C83.2388 52.394 84.7291 54.501 85.5961 56.8456L85.5984 56.8513C86.4759 59.0995 87.0967 61.583 87.0967 64.0546V93.1141V122.174C87.0967 127.398 88.1199 132.497 90.0402 137.089L90.0407 137.09C92.0868 141.931 94.9017 146.138 98.6117 149.834C102.194 153.403 106.544 156.334 111.403 158.372L111.405 158.373C116.013 160.286 121.131 161.305 126.375 161.305C131.618 161.305 136.736 160.286 141.344 158.373L141.349 158.371C146.076 156.334 150.425 153.532 154.137 149.834C157.72 146.265 160.662 141.932 162.708 137.09L162.709 137.089C164.333 133.229 165.347 129.006 165.632 124.538H165.779V124.195V122.174V121.416L165.779 120.91L165.779 120.901C165.651 116.055 164.627 111.592 162.836 107.26L162.834 107.254C160.789 102.544 157.976 98.2114 154.264 94.5134C150.681 90.9442 146.332 88.0134 141.472 85.9749L141.471 85.9744C136.863 84.0614 131.745 83.0422 126.501 83.0422H118.638H116.609H116.266V83.3855V85.407V100.695V102.716V103.06H116.609H118.638H126.501C129.123 103.06 131.608 103.557 133.711 104.543L133.718 104.546L133.724 104.549C136.097 105.545 138.211 106.909 139.948 108.763L139.948 108.763L139.956 108.771C141.702 110.511 143.197 112.621 144.192 114.975C145.07 117.224 145.689 119.579 145.689 122.047V122.174V122.3C145.689 124.783 145.19 127.259 144.2 129.355L144.197 129.361L144.194 129.368C143.195 131.732 141.823 133.842 140.083 135.576C138.335 137.317 136.219 138.802 133.866 139.666L133.866 139.666L133.86 139.668C131.603 140.543 129.11 141.161 126.628 141.161C124.136 141.161 121.648 140.665 119.411 139.674L119.411 139.674L119.405 139.672C117.032 138.676 114.914 137.31 113.174 135.576C111.426 133.834 109.935 131.727 109.068 129.383L109.066 129.377C108.188 127.129 107.568 124.645 107.568 122.174V93.1141V64.0546C107.568 58.8301 106.544 53.7311 104.624 49.1397L104.624 49.1385C102.577 44.2973 99.7626 40.0905 96.0526 36.3944C92.4702 32.8254 88.1214 29.8948 83.262 27.8563C80.8892 26.8433 78.3229 26.1298 75.7401 25.6267C86.743 20.5097 99.16 17.7763 112.297 17.7763C162.584 17.7763 203.266 58.3071 203.266 108.402C203.266 158.497 162.584 199.028 112.297 199.028C62.0102 199.028 21.3283 158.497 21.3283 108.402C21.3283 95.0636 24.194 82.3225 29.4592 70.9873C29.9657 73.68 30.6965 76.3608 31.831 78.8487C33.877 83.6881 36.6913 87.8935 40.4002 91.5885C43.9829 95.1576 48.3321 98.0884 53.1919 100.127Z" stroke="url(#paint1_linear_1104_7801)" stroke-width="0.686558"/>
<path d="M53.1919 100.127L53.1931 100.127C57.8015 102.04 62.9193 103.06 68.163 103.06H76.026H78.0551H78.3984V102.716V100.695V85.407V83.3855V83.0422H78.0551H76.026H68.163C65.5415 83.0422 63.0562 82.5445 60.953 81.5585L60.9466 81.5555L60.94 81.5528C58.5665 80.5571 56.449 79.1908 54.7084 77.4567C52.9621 75.717 51.4677 73.6071 50.4722 71.2533C49.5945 69.0038 48.9756 66.6488 48.9756 64.1809V64.0546V63.9282C48.9756 61.4447 49.4745 58.969 50.4646 56.8731L50.4676 56.8667L50.4704 56.8602C51.4696 54.4958 52.841 52.3864 54.5816 50.6524C56.3297 48.9109 58.4449 47.426 60.7987 46.5621L60.7987 46.5621L60.8045 46.5599C63.0613 45.6856 65.5546 45.0669 68.0361 45.0669C70.6536 45.0669 73.0157 45.5631 75.2529 46.5537L75.2528 46.5538L75.2591 46.5564C77.6327 47.552 79.7501 48.9184 81.4907 50.6524C83.2388 52.394 84.7291 54.501 85.5961 56.8456L85.5984 56.8513C86.4759 59.0995 87.0967 61.583 87.0967 64.0546V93.1141V122.174C87.0967 127.398 88.1199 132.497 90.0402 137.089L90.0407 137.09C92.0868 141.931 94.9017 146.138 98.6117 149.834C102.194 153.403 106.544 156.334 111.403 158.372L111.405 158.373C116.013 160.286 121.131 161.305 126.375 161.305C131.618 161.305 136.736 160.286 141.344 158.373L141.349 158.371C146.076 156.334 150.425 153.532 154.137 149.834C157.72 146.265 160.662 141.932 162.708 137.09L162.709 137.089C164.333 133.229 165.347 129.006 165.632 124.538H165.779V124.195V122.174V121.416L165.779 120.91L165.779 120.901C165.651 116.055 164.627 111.592 162.836 107.26L162.834 107.254C160.789 102.544 157.976 98.2114 154.264 94.5134C150.681 90.9442 146.332 88.0134 141.472 85.9749L141.471 85.9744C136.863 84.0614 131.745 83.0422 126.501 83.0422H118.638H116.609H116.266V83.3855V85.407V100.695V102.716V103.06H116.609H118.638H126.501C129.123 103.06 131.608 103.557 133.711 104.543L133.718 104.546L133.724 104.549C136.097 105.545 138.211 106.909 139.948 108.763L139.948 108.763L139.956 108.771C141.702 110.511 143.197 112.621 144.192 114.975C145.07 117.224 145.689 119.579 145.689 122.047V122.174V122.3C145.689 124.783 145.19 127.259 144.2 129.355L144.197 129.361L144.194 129.368C143.195 131.732 141.823 133.842 140.083 135.576C138.335 137.317 136.219 138.802 133.866 139.666L133.866 139.666L133.86 139.668C131.603 140.543 129.11 141.161 126.628 141.161C124.136 141.161 121.648 140.665 119.411 139.674L119.411 139.674L119.405 139.672C117.032 138.676 114.914 137.31 113.174 135.576C111.426 133.834 109.935 131.727 109.068 129.383L109.066 129.377C108.188 127.129 107.568 124.645 107.568 122.174V93.1141V64.0546C107.568 58.8301 106.544 53.7311 104.624 49.1397L104.624 49.1385C102.577 44.2973 99.7626 40.0905 96.0526 36.3944C92.4702 32.8254 88.1214 29.8948 83.262 27.8563C80.8892 26.8433 78.3229 26.1298 75.7401 25.6267C86.743 20.5097 99.16 17.7763 112.297 17.7763C162.584 17.7763 203.266 58.3071 203.266 108.402C203.266 158.497 162.584 199.028 112.297 199.028C62.0102 199.028 21.3283 158.497 21.3283 108.402C21.3283 95.0636 24.194 82.3225 29.4592 70.9873C29.9657 73.68 30.6965 76.3608 31.831 78.8487C33.877 83.6881 36.6913 87.8935 40.4002 91.5885C43.9829 95.1576 48.3321 98.0884 53.1919 100.127Z" stroke="url(#paint2_linear_1104_7801)" stroke-width="0.686558"/>
</g>
<g opacity="0.2">
<g filter="url(#filter0_f_1104_7801)">
<path d="M199.595 117.256C195.759 167.467 152.084 205.717 102.055 202.703C52.0264 199.69 14.5688 156.552 18.4048 106.341C22.2408 56.1302 65.9163 17.8801 115.945 20.8937C165.974 23.9073 203.431 67.0448 199.595 117.256Z" stroke="url(#paint3_linear_1104_7801)" stroke-width="2.71753"/>
</g>
<g filter="url(#filter1_df_1104_7801)">
<path d="M199.595 117.256C195.759 167.467 152.084 205.717 102.055 202.703C52.0264 199.69 14.5688 156.552 18.4048 106.341C22.2408 56.1302 65.9163 17.8801 115.945 20.8937C165.974 23.9073 203.431 67.0448 199.595 117.256Z" stroke="url(#paint4_linear_1104_7801)" stroke-width="2.71753" shape-rendering="crispEdges"/>
</g>
<g filter="url(#filter2_df_1104_7801)">
<path d="M199.595 117.256C195.759 167.467 152.084 205.717 102.055 202.703C52.0264 199.69 14.5688 156.552 18.4048 106.341C22.2408 56.1302 65.9163 17.8801 115.945 20.8937C165.974 23.9073 203.431 67.0448 199.595 117.256Z" stroke="url(#paint5_linear_1104_7801)" stroke-width="2.71753" shape-rendering="crispEdges"/>
</g>
</g>
<defs>
<filter id="filter0_f_1104_7801" x="0.983456" y="3.57904" width="216.033" height="216.439" filterUnits="userSpaceOnUse" color-interpolation-filters="sRGB">
<feFlood flood-opacity="0" result="BackgroundImageFix"/>
<feBlend mode="normal" in="SourceGraphic" in2="BackgroundImageFix" result="shape"/>
<feGaussianBlur stdDeviation="7.89542" result="effect1_foregroundBlur_1104_7801"/>
</filter>
<filter id="filter1_df_1104_7801" x="3.86601" y="0.34714" width="227.932" height="228.338" filterUnits="userSpaceOnUse" color-interpolation-filters="sRGB">
<feFlood flood-opacity="0" result="BackgroundImageFix"/>
<feColorMatrix in="SourceAlpha" type="matrix" values="0 0 0 0 0 0 0 0 0 0 0 0 0 0 0 0 0 0 127 0" result="hardAlpha"/>
<feOffset dx="8.83198" dy="2.71753"/>
<feGaussianBlur stdDeviation="10.8701"/>
<feComposite in2="hardAlpha" operator="out"/>
<feColorMatrix type="matrix" values="0 0 0 0 0.999429 0 0 0 0 0.999429 0 0 0 0 0.999429 0 0 0 1 0"/>
<feBlend mode="normal" in2="BackgroundImageFix" result="effect1_dropShadow_1104_7801"/>
<feBlend mode="normal" in="SourceGraphic" in2="effect1_dropShadow_1104_7801" result="shape"/>
<feGaussianBlur stdDeviation="5.49247" result="effect2_foregroundBlur_1104_7801"/>
</filter>
<filter id="filter2_df_1104_7801" x="1.88285" y="0.34714" width="229.915" height="228.338" filterUnits="userSpaceOnUse" color-interpolation-filters="sRGB">
<feFlood flood-opacity="0" result="BackgroundImageFix"/>
<feColorMatrix in="SourceAlpha" type="matrix" values="0 0 0 0 0 0 0 0 0 0 0 0 0 0 0 0 0 0 127 0" result="hardAlpha"/>
<feOffset dx="8.83198" dy="2.71753"/>
<feGaussianBlur stdDeviation="10.8701"/>
<feComposite in2="hardAlpha" operator="out"/>
<feColorMatrix type="matrix" values="0 0 0 0 0.999429 0 0 0 0 0.999429 0 0 0 0 0.999429 0 0 0 1 0"/>
<feBlend mode="normal" in2="BackgroundImageFix" result="effect1_dropShadow_1104_7801"/>
<feBlend mode="normal" in="SourceGraphic" in2="effect1_dropShadow_1104_7801" result="shape"/>
<feGaussianBlur stdDeviation="7.44572" result="effect2_foregroundBlur_1104_7801"/>
</filter>
<linearGradient id="paint0_linear_1104_7801" x1="112.297" y1="17.433" x2="112.297" y2="199.371" gradientUnits="userSpaceOnUse">
<stop stop-color="white" stop-opacity="0.04"/>
<stop offset="1" stop-color="#D9D9D9" stop-opacity="0"/>
</linearGradient>
<linearGradient id="paint1_linear_1104_7801" x1="112.297" y1="17.433" x2="112.297" y2="117.942" gradientUnits="userSpaceOnUse">
<stop offset="0.0833333" stop-color="#616FFF"/>
<stop offset="1" stop-color="white" stop-opacity="0"/>
</linearGradient>
<linearGradient id="paint2_linear_1104_7801" x1="112.297" y1="17.433" x2="112.297" y2="117.942" gradientUnits="userSpaceOnUse">
<stop stop-color="#A5ACF2"/>
<stop offset="1" stop-color="white" stop-opacity="0"/>
</linearGradient>
<linearGradient id="paint3_linear_1104_7801" x1="147.396" y1="28.3785" x2="126.514" y2="62.8258" gradientUnits="userSpaceOnUse">
<stop stop-color="#5666FF"/>
<stop offset="1" stop-color="#3743AC" stop-opacity="0"/>
</linearGradient>
<linearGradient id="paint4_linear_1104_7801" x1="147.396" y1="28.3785" x2="126.514" y2="62.8258" gradientUnits="userSpaceOnUse">
<stop stop-color="#5666FF"/>
<stop offset="1" stop-color="#3743AC" stop-opacity="0"/>
</linearGradient>
<linearGradient id="paint5_linear_1104_7801" x1="147.396" y1="28.3785" x2="126.514" y2="62.8258" gradientUnits="userSpaceOnUse">
<stop stop-color="#5666FF"/>
<stop offset="1" stop-color="#3743AC" stop-opacity="0"/>
</linearGradient>
</defs>
</svg>
