<svg width="644" height="315" viewBox="0 0 644 315" fill="none" xmlns="http://www.w3.org/2000/svg">
    <g clip-path="url(#clip0_1156_2335)">
        <rect x="93" y="26.0972" width="460" height="263" rx="8" fill="#17171C"/>
        <path d="M129.96 72.5975V64.1975H135.132V65.1095H130.968V67.9175H134.796V68.8295H130.968V71.6855H135.192V72.5975H129.96ZM137.346 72.5975L140.058 68.3615L137.382 64.1975H138.57L140.706 67.6655H140.862L143.01 64.1975H144.186L141.522 68.3615L144.234 72.5975H143.058L140.862 69.0575H140.706L138.522 72.5975H137.346ZM146.774 72.5975V64.1975H149.99C150.494 64.1975 150.942 64.2975 151.334 64.4975C151.734 64.6895 152.05 64.9655 152.282 65.3255C152.514 65.6855 152.63 66.1215 152.63 66.6335V66.7895C152.63 67.2935 152.51 67.7295 152.27 68.0975C152.038 68.4575 151.722 68.7335 151.322 68.9255C150.922 69.1175 150.478 69.2135 149.99 69.2135H147.782V72.5975H146.774ZM147.782 68.3015H149.882C150.418 68.3015 150.842 68.1695 151.154 67.9055C151.466 67.6335 151.622 67.2535 151.622 66.7655V66.6455C151.622 66.1575 151.466 65.7815 151.154 65.5175C150.85 65.2455 150.426 65.1095 149.882 65.1095H147.782V68.3015ZM155.181 72.5975V64.1975H156.189V71.6855H160.437V72.5975H155.181ZM165.746 72.7655C164.746 72.7655 163.946 72.4775 163.346 71.9015C162.754 71.3175 162.458 70.4695 162.458 69.3575V67.4375C162.458 66.3255 162.754 65.4815 163.346 64.9055C163.946 64.3215 164.746 64.0295 165.746 64.0295C166.754 64.0295 167.554 64.3215 168.146 64.9055C168.746 65.4815 169.046 66.3255 169.046 67.4375V69.3575C169.046 70.4695 168.746 71.3175 168.146 71.9015C167.554 72.4775 166.754 72.7655 165.746 72.7655ZM165.746 71.8655C166.474 71.8655 167.038 71.6495 167.438 71.2175C167.838 70.7775 168.038 70.1695 168.038 69.3935V67.4015C168.038 66.6255 167.838 66.0215 167.438 65.5895C167.038 65.1495 166.474 64.9295 165.746 64.9295C165.026 64.9295 164.466 65.1495 164.066 65.5895C163.666 66.0215 163.466 66.6255 163.466 67.4015V69.3935C163.466 70.1695 163.666 70.7775 164.066 71.2175C164.466 71.6495 165.026 71.8655 165.746 71.8655ZM171.925 72.5975V64.1975H175.321C175.841 64.1975 176.297 64.2895 176.689 64.4735C177.089 64.6495 177.401 64.9055 177.625 65.2415C177.849 65.5695 177.961 65.9655 177.961 66.4295V66.5615C177.961 67.1135 177.829 67.5495 177.565 67.8695C177.301 68.1895 176.989 68.4055 176.629 68.5175V68.6855C176.917 68.6935 177.153 68.7895 177.337 68.9735C177.529 69.1495 177.625 69.4175 177.625 69.7775V72.5975H176.629V69.8975C176.629 69.6575 176.561 69.4735 176.425 69.3455C176.297 69.2175 176.101 69.1535 175.837 69.1535H172.933V72.5975H171.925ZM172.933 68.2415H175.225C175.777 68.2415 176.201 68.1095 176.497 67.8455C176.801 67.5735 176.953 67.1975 176.953 66.7175V66.6335C176.953 66.1535 176.805 65.7815 176.509 65.5175C176.213 65.2455 175.785 65.1095 175.225 65.1095H172.933V68.2415ZM180.695 72.5975V64.1975H185.867V65.1095H181.703V67.9175H185.531V68.8295H181.703V71.6855H185.927V72.5975H180.695ZM192.939 72.5975V64.1975H196.155C196.659 64.1975 197.107 64.2975 197.499 64.4975C197.899 64.6895 198.215 64.9655 198.447 65.3255C198.679 65.6855 198.795 66.1215 198.795 66.6335V66.7895C198.795 67.2935 198.675 67.7295 198.435 68.0975C198.203 68.4575 197.887 68.7335 197.487 68.9255C197.087 69.1175 196.643 69.2135 196.155 69.2135H193.947V72.5975H192.939ZM193.947 68.3015H196.047C196.583 68.3015 197.007 68.1695 197.319 67.9055C197.631 67.6335 197.787 67.2535 197.787 66.7655V66.6455C197.787 66.1575 197.631 65.7815 197.319 65.5175C197.015 65.2455 196.591 65.1095 196.047 65.1095H193.947V68.3015ZM201.346 72.5975V64.1975H204.742C205.262 64.1975 205.718 64.2895 206.11 64.4735C206.51 64.6495 206.822 64.9055 207.046 65.2415C207.27 65.5695 207.382 65.9655 207.382 66.4295V66.5615C207.382 67.1135 207.25 67.5495 206.986 67.8695C206.722 68.1895 206.41 68.4055 206.05 68.5175V68.6855C206.338 68.6935 206.574 68.7895 206.758 68.9735C206.95 69.1495 207.046 69.4175 207.046 69.7775V72.5975H206.05V69.8975C206.05 69.6575 205.982 69.4735 205.846 69.3455C205.718 69.2175 205.522 69.1535 205.258 69.1535H202.354V72.5975H201.346ZM202.354 68.2415H204.646C205.198 68.2415 205.622 68.1095 205.918 67.8455C206.222 67.5735 206.374 67.1975 206.374 66.7175V66.6335C206.374 66.1535 206.226 65.7815 205.93 65.5175C205.634 65.2455 205.206 65.1095 204.646 65.1095H202.354V68.2415ZM213.164 72.7655C212.164 72.7655 211.364 72.4775 210.764 71.9015C210.172 71.3175 209.876 70.4695 209.876 69.3575V67.4375C209.876 66.3255 210.172 65.4815 210.764 64.9055C211.364 64.3215 212.164 64.0295 213.164 64.0295C214.172 64.0295 214.972 64.3215 215.564 64.9055C216.164 65.4815 216.464 66.3255 216.464 67.4375V69.3575C216.464 70.4695 216.164 71.3175 215.564 71.9015C214.972 72.4775 214.172 72.7655 213.164 72.7655ZM213.164 71.8655C213.892 71.8655 214.456 71.6495 214.856 71.2175C215.256 70.7775 215.456 70.1695 215.456 69.3935V67.4015C215.456 66.6255 215.256 66.0215 214.856 65.5895C214.456 65.1495 213.892 64.9295 213.164 64.9295C212.444 64.9295 211.884 65.1495 211.484 65.5895C211.084 66.0215 210.884 66.6255 210.884 67.4015V69.3935C210.884 70.1695 211.084 70.7775 211.484 71.2175C211.884 71.6495 212.444 71.8655 213.164 71.8655ZM221.54 72.7655C220.716 72.7655 220.064 72.5335 219.584 72.0695C219.112 71.6055 218.876 70.9415 218.876 70.0775V69.4295H219.872V70.0775C219.872 70.6055 220.008 71.0335 220.28 71.3615C220.56 71.6895 220.976 71.8535 221.528 71.8535C222.088 71.8535 222.484 71.6895 222.716 71.3615C222.948 71.0335 223.064 70.6055 223.064 70.0775V64.1975H224.072V70.0775C224.072 70.9495 223.856 71.6175 223.424 72.0815C222.992 72.5375 222.364 72.7655 221.54 72.7655ZM227.13 72.5975V64.1975H232.302V65.1095H228.138V67.9175H231.966V68.8295H228.138V71.6855H232.362V72.5975H227.13ZM238.127 72.7655C237.127 72.7655 236.331 72.4775 235.739 71.9015C235.147 71.3175 234.851 70.4695 234.851 69.3575V67.4375C234.851 66.3255 235.147 65.4815 235.739 64.9055C236.331 64.3215 237.127 64.0295 238.127 64.0295C239.119 64.0295 239.879 64.3055 240.407 64.8575C240.943 65.4095 241.211 66.1655 241.211 67.1255V67.1855H240.215V67.0895C240.215 66.4575 240.043 65.9415 239.699 65.5415C239.363 65.1335 238.839 64.9295 238.127 64.9295C237.415 64.9295 236.859 65.1495 236.459 65.5895C236.059 66.0215 235.859 66.6295 235.859 67.4135V69.3815C235.859 70.1655 236.059 70.7775 236.459 71.2175C236.859 71.6495 237.415 71.8655 238.127 71.8655C238.839 71.8655 239.363 71.6655 239.699 71.2655C240.043 70.8575 240.215 70.3375 240.215 69.7055V69.5135H241.211V69.6695C241.211 70.6295 240.943 71.3855 240.407 71.9375C239.879 72.4895 239.119 72.7655 238.127 72.7655ZM245.855 72.5975V65.1095H243.155V64.1975H249.563V65.1095H246.863V72.5975H245.855ZM254.619 72.7655C254.011 72.7655 253.467 72.6575 252.987 72.4415C252.507 72.2255 252.127 71.9015 251.847 71.4695C251.575 71.0295 251.439 70.4815 251.439 69.8255V69.5735H252.435V69.8255C252.435 70.5215 252.639 71.0415 253.047 71.3855C253.455 71.7215 253.979 71.8895 254.619 71.8895C255.275 71.8895 255.775 71.7415 256.119 71.4455C256.463 71.1495 256.635 70.7775 256.635 70.3295C256.635 70.0175 256.555 69.7695 256.395 69.5855C256.243 69.4015 256.027 69.2535 255.747 69.1415C255.467 69.0215 255.139 68.9175 254.763 68.8295L254.139 68.6735C253.651 68.5455 253.219 68.3895 252.843 68.2055C252.467 68.0215 252.171 67.7815 251.955 67.4855C251.747 67.1815 251.643 66.7935 251.643 66.3215C251.643 65.8495 251.759 65.4415 251.991 65.0975C252.231 64.7535 252.563 64.4895 252.987 64.3055C253.419 64.1215 253.915 64.0295 254.475 64.0295C255.043 64.0295 255.551 64.1295 255.999 64.3295C256.455 64.5215 256.811 64.8095 257.067 65.1935C257.331 65.5695 257.463 66.0455 257.463 66.6215V67.1255H256.467V66.6215C256.467 66.2135 256.379 65.8855 256.203 65.6375C256.035 65.3895 255.799 65.2055 255.495 65.0855C255.199 64.9655 254.859 64.9055 254.475 64.9055C253.923 64.9055 253.479 65.0295 253.143 65.2775C252.807 65.5175 252.639 65.8615 252.639 66.3095C252.639 66.6055 252.711 66.8455 252.855 67.0295C252.999 67.2135 253.203 67.3655 253.467 67.4855C253.731 67.5975 254.047 67.6975 254.415 67.7855L255.039 67.9415C255.527 68.0455 255.963 68.1895 256.347 68.3735C256.739 68.5495 257.051 68.7935 257.283 69.1055C257.515 69.4095 257.631 69.8095 257.631 70.3055C257.631 70.8015 257.507 71.2335 257.259 71.6015C257.011 71.9695 256.659 72.2575 256.203 72.4655C255.755 72.6655 255.227 72.7655 254.619 72.7655Z" fill="#5C5E70"/>
        <rect x="117.5" y="50.5972" width="363" height="35.0006" rx="3.5" stroke="#2E2F38"/>
        <rect x="493.5" y="50.5972" width="35" height="35.0006" rx="3.5" fill="#141844"/>
        <path d="M510.25 72.5971C513.149 72.5971 515.5 70.2466 515.5 67.3471C515.5 64.4477 513.149 62.0972 510.25 62.0972C507.35 62.0972 505 64.4477 505 67.3471C505 70.2466 507.35 72.5971 510.25 72.5971Z" stroke="#4250E4" stroke-width="1.4" stroke-linecap="round" stroke-linejoin="round"/>
        <path d="M513.962 71.0603L517 74.0978" stroke="#4250E4" stroke-width="1.4" stroke-linecap="round" stroke-linejoin="round"/>
        <rect x="493.5" y="50.5972" width="35" height="35.0006" rx="3.5" stroke="#283089"/>
        <rect x="129" y="126.598" width="156" height="8" rx="4" fill="#23232A"/>
        <path d="M443.584 135.098V133.11H438.866V131.22L442.254 125.298H445.222V131.654H446.832V133.11H445.222V135.098H443.584ZM440.406 131.654H443.584V126.334H443.346L440.406 131.444V131.654ZM452.812 135.294C452.084 135.294 451.435 135.163 450.866 134.902C450.306 134.64 449.867 134.267 449.55 133.782C449.233 133.287 449.074 132.699 449.074 132.018V131.766H450.698V131.976C450.698 132.545 450.889 132.998 451.272 133.334C451.664 133.67 452.177 133.838 452.812 133.838C453.447 133.838 453.941 133.684 454.296 133.376C454.651 133.058 454.828 132.662 454.828 132.186V132.06C454.828 131.724 454.744 131.453 454.576 131.248C454.417 131.042 454.198 130.893 453.918 130.8C453.647 130.697 453.339 130.646 452.994 130.646H451.118V128.826L454.436 126.964V126.754H449.312V125.298H456.228V127.482L453.092 129.246V129.456H453.666C454.133 129.456 454.576 129.549 454.996 129.736C455.425 129.913 455.775 130.188 456.046 130.562C456.317 130.935 456.452 131.42 456.452 132.018V132.172C456.452 132.806 456.298 133.357 455.99 133.824C455.691 134.29 455.267 134.654 454.716 134.916C454.175 135.168 453.54 135.294 452.812 135.294ZM459.38 135.098V133.964C459.38 133.273 459.492 132.708 459.716 132.27C459.949 131.822 460.28 131.458 460.71 131.178C461.139 130.888 461.662 130.65 462.278 130.464L463.174 130.184C463.538 130.062 463.846 129.918 464.098 129.75C464.35 129.582 464.546 129.376 464.686 129.134C464.826 128.882 464.896 128.588 464.896 128.252V128.196C464.896 127.692 464.723 127.295 464.378 127.006C464.032 126.707 463.57 126.558 462.992 126.558C462.413 126.558 461.942 126.716 461.578 127.034C461.214 127.342 461.032 127.799 461.032 128.406V128.644H459.408V128.434C459.408 127.724 459.566 127.122 459.884 126.628C460.201 126.133 460.63 125.755 461.172 125.494C461.713 125.232 462.32 125.102 462.992 125.102C463.664 125.102 464.266 125.232 464.798 125.494C465.339 125.746 465.759 126.1 466.058 126.558C466.366 127.015 466.52 127.552 466.52 128.168V128.308C466.52 128.933 466.394 129.46 466.142 129.89C465.89 130.319 465.54 130.674 465.092 130.954C464.653 131.224 464.154 131.448 463.594 131.626L462.726 131.892C462.306 132.022 461.97 132.162 461.718 132.312C461.475 132.461 461.302 132.634 461.2 132.83C461.097 133.016 461.046 133.254 461.046 133.544V133.642H466.436V135.098H459.38Z" fill="#5C5E70"/>
        <path d="M479.024 135.098V127.61H476.324V126.698H482.732V127.61H480.032V135.098H479.024ZM483.652 135.098L486.244 126.698H488.02L490.612 135.098H489.568L488.92 132.974H485.344L484.696 135.098H483.652ZM485.596 132.062H488.656L487.216 127.31H487.048L485.596 132.062ZM495.832 135.266C495.224 135.266 494.68 135.158 494.2 134.942C493.72 134.726 493.34 134.402 493.06 133.97C492.788 133.53 492.652 132.982 492.652 132.326V132.074H493.648V132.326C493.648 133.022 493.852 133.542 494.26 133.886C494.668 134.222 495.192 134.39 495.832 134.39C496.488 134.39 496.988 134.242 497.332 133.946C497.676 133.65 497.848 133.278 497.848 132.83C497.848 132.518 497.768 132.27 497.608 132.086C497.456 131.902 497.24 131.754 496.96 131.642C496.68 131.522 496.352 131.418 495.976 131.33L495.352 131.174C494.864 131.046 494.432 130.89 494.056 130.706C493.68 130.522 493.384 130.282 493.168 129.986C492.96 129.682 492.856 129.294 492.856 128.822C492.856 128.35 492.972 127.942 493.204 127.598C493.444 127.254 493.776 126.99 494.2 126.806C494.632 126.622 495.128 126.53 495.688 126.53C496.256 126.53 496.764 126.63 497.212 126.83C497.668 127.022 498.024 127.31 498.28 127.694C498.544 128.07 498.676 128.546 498.676 129.122V129.626H497.68V129.122C497.68 128.714 497.592 128.386 497.416 128.138C497.248 127.89 497.012 127.706 496.708 127.586C496.412 127.466 496.072 127.406 495.688 127.406C495.136 127.406 494.692 127.53 494.356 127.778C494.02 128.018 493.852 128.362 493.852 128.81C493.852 129.106 493.924 129.346 494.068 129.53C494.212 129.714 494.416 129.866 494.68 129.986C494.944 130.098 495.26 130.198 495.628 130.286L496.252 130.442C496.74 130.546 497.176 130.69 497.56 130.874C497.952 131.05 498.264 131.294 498.496 131.606C498.728 131.91 498.844 132.31 498.844 132.806C498.844 133.302 498.72 133.734 498.472 134.102C498.224 134.47 497.872 134.758 497.416 134.966C496.968 135.166 496.44 135.266 495.832 135.266ZM501.595 135.098V126.698H502.603V130.358H502.771L506.323 126.698H507.667L503.575 130.85L507.811 135.098H506.431L502.771 131.366H502.603V135.098H501.595ZM512.869 135.266C512.261 135.266 511.717 135.158 511.237 134.942C510.757 134.726 510.377 134.402 510.097 133.97C509.825 133.53 509.689 132.982 509.689 132.326V132.074H510.685V132.326C510.685 133.022 510.889 133.542 511.297 133.886C511.705 134.222 512.229 134.39 512.869 134.39C513.525 134.39 514.025 134.242 514.369 133.946C514.713 133.65 514.885 133.278 514.885 132.83C514.885 132.518 514.805 132.27 514.645 132.086C514.493 131.902 514.277 131.754 513.997 131.642C513.717 131.522 513.389 131.418 513.013 131.33L512.389 131.174C511.901 131.046 511.469 130.89 511.093 130.706C510.717 130.522 510.421 130.282 510.205 129.986C509.997 129.682 509.893 129.294 509.893 128.822C509.893 128.35 510.009 127.942 510.241 127.598C510.481 127.254 510.813 126.99 511.237 126.806C511.669 126.622 512.165 126.53 512.725 126.53C513.293 126.53 513.801 126.63 514.249 126.83C514.705 127.022 515.061 127.31 515.317 127.694C515.581 128.07 515.713 128.546 515.713 129.122V129.626H514.717V129.122C514.717 128.714 514.629 128.386 514.453 128.138C514.285 127.89 514.049 127.706 513.745 127.586C513.449 127.466 513.109 127.406 512.725 127.406C512.173 127.406 511.729 127.53 511.393 127.778C511.057 128.018 510.889 128.362 510.889 128.81C510.889 129.106 510.961 129.346 511.105 129.53C511.249 129.714 511.453 129.866 511.717 129.986C511.981 130.098 512.297 130.198 512.665 130.286L513.289 130.442C513.777 130.546 514.213 130.69 514.597 130.874C514.989 131.05 515.301 131.294 515.533 131.606C515.765 131.91 515.881 132.31 515.881 132.806C515.881 133.302 515.757 133.734 515.509 134.102C515.261 134.47 514.909 134.758 514.453 134.966C514.005 135.166 513.477 135.266 512.869 135.266Z" fill="#454654"/>
        <rect x="117.5" y="110.598" width="411" height="40" rx="7.5" stroke="#2E2F38"/>
        <g opacity="0.6">
            <rect x="129" y="179.598" width="95" height="8" rx="4" fill="#23232A"/>
            <path d="M439.216 188.098V186.964C439.216 186.273 439.328 185.708 439.552 185.27C439.786 184.822 440.117 184.458 440.546 184.178C440.976 183.888 441.498 183.65 442.114 183.464L443.01 183.184C443.374 183.062 443.682 182.918 443.934 182.75C444.186 182.582 444.382 182.376 444.522 182.134C444.662 181.882 444.732 181.588 444.732 181.252V181.196C444.732 180.692 444.56 180.295 444.214 180.006C443.869 179.707 443.407 179.558 442.828 179.558C442.25 179.558 441.778 179.716 441.414 180.034C441.05 180.342 440.868 180.799 440.868 181.406V181.644H439.244V181.434C439.244 180.724 439.403 180.122 439.72 179.628C440.038 179.133 440.467 178.755 441.008 178.494C441.55 178.232 442.156 178.102 442.828 178.102C443.5 178.102 444.102 178.232 444.634 178.494C445.176 178.746 445.596 179.1 445.894 179.558C446.202 180.015 446.356 180.552 446.356 181.168V181.308C446.356 181.933 446.23 182.46 445.978 182.89C445.726 183.319 445.376 183.674 444.928 183.954C444.49 184.224 443.99 184.448 443.43 184.626L442.562 184.892C442.142 185.022 441.806 185.162 441.554 185.312C441.312 185.461 441.139 185.634 441.036 185.83C440.934 186.016 440.882 186.254 440.882 186.544V186.642H446.272V188.098H439.216ZM450.782 188.098V187.734C450.782 187.379 450.805 187.08 450.852 186.838C450.899 186.586 451.025 186.296 451.23 185.97L454.884 179.978V179.782H449.032V178.298H456.606V180.258L452.77 186.628C452.639 186.842 452.551 187.034 452.504 187.202C452.467 187.36 452.448 187.561 452.448 187.804V188.098H450.782ZM462.782 188.294C462.054 188.294 461.424 188.172 460.892 187.93C460.369 187.678 459.963 187.328 459.674 186.88C459.384 186.422 459.24 185.886 459.24 185.27H460.892C460.892 185.699 461.041 186.068 461.34 186.376C461.648 186.684 462.128 186.838 462.782 186.838C463.444 186.838 463.953 186.665 464.308 186.32C464.672 185.965 464.854 185.48 464.854 184.864V183.772H464.616C464.448 183.986 464.196 184.187 463.86 184.374C463.524 184.551 463.029 184.64 462.376 184.64C461.806 184.64 461.279 184.518 460.794 184.276C460.308 184.033 459.916 183.678 459.618 183.212C459.328 182.745 459.184 182.185 459.184 181.532V181.364C459.184 180.701 459.338 180.127 459.646 179.642C459.954 179.156 460.383 178.778 460.934 178.508C461.484 178.237 462.124 178.102 462.852 178.102C463.58 178.102 464.214 178.242 464.756 178.522C465.306 178.792 465.731 179.175 466.03 179.67C466.328 180.164 466.478 180.738 466.478 181.392V184.766C466.478 185.54 466.319 186.189 466.002 186.712C465.694 187.234 465.26 187.631 464.7 187.902C464.149 188.163 463.51 188.294 462.782 188.294ZM462.824 183.338C463.244 183.338 463.603 183.263 463.902 183.114C464.2 182.955 464.434 182.74 464.602 182.47C464.77 182.19 464.854 181.863 464.854 181.49V181.378C464.854 180.818 464.672 180.374 464.308 180.048C463.944 179.721 463.449 179.558 462.824 179.558C462.208 179.558 461.718 179.721 461.354 180.048C460.99 180.374 460.808 180.818 460.808 181.378V181.49C460.808 181.863 460.892 182.19 461.06 182.47C461.228 182.74 461.461 182.955 461.76 183.114C462.068 183.263 462.422 183.338 462.824 183.338Z" fill="#5C5E70"/>
            <path d="M479.024 188.098V180.61H476.324V179.698H482.732V180.61H480.032V188.098H479.024ZM483.652 188.098L486.244 179.698H488.02L490.612 188.098H489.568L488.92 185.974H485.344L484.696 188.098H483.652ZM485.596 185.062H488.656L487.216 180.31H487.048L485.596 185.062ZM495.832 188.266C495.224 188.266 494.68 188.158 494.2 187.942C493.72 187.726 493.34 187.402 493.06 186.97C492.788 186.53 492.652 185.982 492.652 185.326V185.074H493.648V185.326C493.648 186.022 493.852 186.542 494.26 186.886C494.668 187.222 495.192 187.39 495.832 187.39C496.488 187.39 496.988 187.242 497.332 186.946C497.676 186.65 497.848 186.278 497.848 185.83C497.848 185.518 497.768 185.27 497.608 185.086C497.456 184.902 497.24 184.754 496.96 184.642C496.68 184.522 496.352 184.418 495.976 184.33L495.352 184.174C494.864 184.046 494.432 183.89 494.056 183.706C493.68 183.522 493.384 183.282 493.168 182.986C492.96 182.682 492.856 182.294 492.856 181.822C492.856 181.35 492.972 180.942 493.204 180.598C493.444 180.254 493.776 179.99 494.2 179.806C494.632 179.622 495.128 179.53 495.688 179.53C496.256 179.53 496.764 179.63 497.212 179.83C497.668 180.022 498.024 180.31 498.28 180.694C498.544 181.07 498.676 181.546 498.676 182.122V182.626H497.68V182.122C497.68 181.714 497.592 181.386 497.416 181.138C497.248 180.89 497.012 180.706 496.708 180.586C496.412 180.466 496.072 180.406 495.688 180.406C495.136 180.406 494.692 180.53 494.356 180.778C494.02 181.018 493.852 181.362 493.852 181.81C493.852 182.106 493.924 182.346 494.068 182.53C494.212 182.714 494.416 182.866 494.68 182.986C494.944 183.098 495.26 183.198 495.628 183.286L496.252 183.442C496.74 183.546 497.176 183.69 497.56 183.874C497.952 184.05 498.264 184.294 498.496 184.606C498.728 184.91 498.844 185.31 498.844 185.806C498.844 186.302 498.72 186.734 498.472 187.102C498.224 187.47 497.872 187.758 497.416 187.966C496.968 188.166 496.44 188.266 495.832 188.266ZM501.595 188.098V179.698H502.603V183.358H502.771L506.323 179.698H507.667L503.575 183.85L507.811 188.098H506.431L502.771 184.366H502.603V188.098H501.595ZM512.868 188.266C512.26 188.266 511.716 188.158 511.236 187.942C510.756 187.726 510.376 187.402 510.096 186.97C509.824 186.53 509.688 185.982 509.688 185.326V185.074H510.684V185.326C510.684 186.022 510.888 186.542 511.296 186.886C511.704 187.222 512.228 187.39 512.868 187.39C513.524 187.39 514.024 187.242 514.368 186.946C514.712 186.65 514.884 186.278 514.884 185.83C514.884 185.518 514.804 185.27 514.644 185.086C514.492 184.902 514.276 184.754 513.996 184.642C513.716 184.522 513.388 184.418 513.012 184.33L512.388 184.174C511.9 184.046 511.468 183.89 511.092 183.706C510.716 183.522 510.42 183.282 510.204 182.986C509.996 182.682 509.892 182.294 509.892 181.822C509.892 181.35 510.008 180.942 510.24 180.598C510.48 180.254 510.812 179.99 511.236 179.806C511.668 179.622 512.164 179.53 512.724 179.53C513.292 179.53 513.8 179.63 514.248 179.83C514.704 180.022 515.06 180.31 515.316 180.694C515.58 181.07 515.712 181.546 515.712 182.122V182.626H514.716V182.122C514.716 181.714 514.628 181.386 514.452 181.138C514.284 180.89 514.048 180.706 513.744 180.586C513.448 180.466 513.108 180.406 512.724 180.406C512.172 180.406 511.728 180.53 511.392 180.778C511.056 181.018 510.888 181.362 510.888 181.81C510.888 182.106 510.96 182.346 511.104 182.53C511.248 182.714 511.452 182.866 511.716 182.986C511.98 183.098 512.296 183.198 512.664 183.286L513.288 183.442C513.776 183.546 514.212 183.69 514.596 183.874C514.988 184.05 515.3 184.294 515.532 184.606C515.764 184.91 515.88 185.31 515.88 185.806C515.88 186.302 515.756 186.734 515.508 187.102C515.26 187.47 514.908 187.758 514.452 187.966C514.004 188.166 513.476 188.266 512.868 188.266Z" fill="#454654"/>
            <rect x="117.5" y="163.598" width="411" height="40" rx="7.5" stroke="#2E2F38"/>
        </g>
        <g opacity="0.4">
            <rect x="129" y="232.598" width="125" height="8" rx="4" fill="#23232A"/>
            <path d="M442.73 241.294C442.002 241.294 441.354 241.163 440.784 240.902C440.224 240.64 439.786 240.267 439.468 239.782C439.151 239.287 438.992 238.699 438.992 238.018V237.766H440.616V237.976C440.616 238.545 440.808 238.998 441.19 239.334C441.582 239.67 442.096 239.838 442.73 239.838C443.365 239.838 443.86 239.684 444.214 239.376C444.569 239.058 444.746 238.662 444.746 238.186V238.06C444.746 237.724 444.662 237.453 444.494 237.248C444.336 237.042 444.116 236.893 443.836 236.8C443.566 236.697 443.258 236.646 442.912 236.646H441.036V234.826L444.354 232.964V232.754H439.23V231.298H446.146V233.482L443.01 235.246V235.456H443.584C444.051 235.456 444.494 235.549 444.914 235.736C445.344 235.913 445.694 236.188 445.964 236.562C446.235 236.935 446.37 237.42 446.37 238.018V238.172C446.37 238.806 446.216 239.357 445.908 239.824C445.61 240.29 445.185 240.654 444.634 240.916C444.093 241.168 443.458 241.294 442.73 241.294ZM449.298 241.098V239.964C449.298 239.273 449.41 238.708 449.634 238.27C449.867 237.822 450.199 237.458 450.628 237.178C451.057 236.888 451.58 236.65 452.196 236.464L453.092 236.184C453.456 236.062 453.764 235.918 454.016 235.75C454.268 235.582 454.464 235.376 454.604 235.134C454.744 234.882 454.814 234.588 454.814 234.252V234.196C454.814 233.692 454.641 233.295 454.296 233.006C453.951 232.707 453.489 232.558 452.91 232.558C452.331 232.558 451.86 232.716 451.496 233.034C451.132 233.342 450.95 233.799 450.95 234.406V234.644H449.326V234.434C449.326 233.724 449.485 233.122 449.802 232.628C450.119 232.133 450.549 231.755 451.09 231.494C451.631 231.232 452.238 231.102 452.91 231.102C453.582 231.102 454.184 231.232 454.716 231.494C455.257 231.746 455.677 232.1 455.976 232.558C456.284 233.015 456.438 233.552 456.438 234.168V234.308C456.438 234.933 456.312 235.46 456.06 235.89C455.808 236.319 455.458 236.674 455.01 236.954C454.571 237.224 454.072 237.448 453.512 237.626L452.644 237.892C452.224 238.022 451.888 238.162 451.636 238.312C451.393 238.461 451.221 238.634 451.118 238.83C451.015 239.016 450.964 239.254 450.964 239.544V239.642H456.354V241.098H449.298ZM462.908 241.294C461.76 241.294 460.84 240.972 460.15 240.328C459.459 239.684 459.114 238.713 459.114 237.416V234.98C459.114 233.71 459.459 232.749 460.15 232.096C460.84 231.433 461.76 231.102 462.908 231.102C464.065 231.102 464.984 231.433 465.666 232.096C466.356 232.749 466.702 233.71 466.702 234.98V237.416C466.702 238.713 466.356 239.684 465.666 240.328C464.984 240.972 464.065 241.294 462.908 241.294ZM462.908 239.838C463.645 239.838 464.186 239.632 464.532 239.222C464.886 238.811 465.064 238.228 465.064 237.472V234.91C465.064 234.144 464.872 233.561 464.49 233.16C464.107 232.758 463.58 232.558 462.908 232.558C462.217 232.558 461.685 232.763 461.312 233.174C460.938 233.584 460.752 234.163 460.752 234.91V237.472C460.752 238.246 460.929 238.834 461.284 239.236C461.648 239.637 462.189 239.838 462.908 239.838Z" fill="#5C5E70"/>
            <path d="M479.024 241.098V233.61H476.324V232.698H482.732V233.61H480.032V241.098H479.024ZM483.652 241.098L486.244 232.698H488.02L490.612 241.098H489.568L488.92 238.974H485.344L484.696 241.098H483.652ZM485.596 238.062H488.656L487.216 233.31H487.048L485.596 238.062ZM495.832 241.266C495.224 241.266 494.68 241.158 494.2 240.942C493.72 240.726 493.34 240.402 493.06 239.97C492.788 239.53 492.652 238.982 492.652 238.326V238.074H493.648V238.326C493.648 239.022 493.852 239.542 494.26 239.886C494.668 240.222 495.192 240.39 495.832 240.39C496.488 240.39 496.988 240.242 497.332 239.946C497.676 239.65 497.848 239.278 497.848 238.83C497.848 238.518 497.768 238.27 497.608 238.086C497.456 237.902 497.24 237.754 496.96 237.642C496.68 237.522 496.352 237.418 495.976 237.33L495.352 237.174C494.864 237.046 494.432 236.89 494.056 236.706C493.68 236.522 493.384 236.282 493.168 235.986C492.96 235.682 492.856 235.294 492.856 234.822C492.856 234.35 492.972 233.942 493.204 233.598C493.444 233.254 493.776 232.99 494.2 232.806C494.632 232.622 495.128 232.53 495.688 232.53C496.256 232.53 496.764 232.63 497.212 232.83C497.668 233.022 498.024 233.31 498.28 233.694C498.544 234.07 498.676 234.546 498.676 235.122V235.626H497.68V235.122C497.68 234.714 497.592 234.386 497.416 234.138C497.248 233.89 497.012 233.706 496.708 233.586C496.412 233.466 496.072 233.406 495.688 233.406C495.136 233.406 494.692 233.53 494.356 233.778C494.02 234.018 493.852 234.362 493.852 234.81C493.852 235.106 493.924 235.346 494.068 235.53C494.212 235.714 494.416 235.866 494.68 235.986C494.944 236.098 495.26 236.198 495.628 236.286L496.252 236.442C496.74 236.546 497.176 236.69 497.56 236.874C497.952 237.05 498.264 237.294 498.496 237.606C498.728 237.91 498.844 238.31 498.844 238.806C498.844 239.302 498.72 239.734 498.472 240.102C498.224 240.47 497.872 240.758 497.416 240.966C496.968 241.166 496.44 241.266 495.832 241.266ZM501.595 241.098V232.698H502.603V236.358H502.771L506.323 232.698H507.667L503.575 236.85L507.811 241.098H506.431L502.771 237.366H502.603V241.098H501.595ZM512.869 241.266C512.261 241.266 511.717 241.158 511.237 240.942C510.757 240.726 510.377 240.402 510.097 239.97C509.825 239.53 509.689 238.982 509.689 238.326V238.074H510.685V238.326C510.685 239.022 510.889 239.542 511.297 239.886C511.705 240.222 512.229 240.39 512.869 240.39C513.525 240.39 514.025 240.242 514.369 239.946C514.713 239.65 514.885 239.278 514.885 238.83C514.885 238.518 514.805 238.27 514.645 238.086C514.493 237.902 514.277 237.754 513.997 237.642C513.717 237.522 513.389 237.418 513.013 237.33L512.389 237.174C511.901 237.046 511.469 236.89 511.093 236.706C510.717 236.522 510.421 236.282 510.205 235.986C509.997 235.682 509.893 235.294 509.893 234.822C509.893 234.35 510.009 233.942 510.241 233.598C510.481 233.254 510.813 232.99 511.237 232.806C511.669 232.622 512.165 232.53 512.725 232.53C513.293 232.53 513.801 232.63 514.249 232.83C514.705 233.022 515.061 233.31 515.317 233.694C515.581 234.07 515.713 234.546 515.713 235.122V235.626H514.717V235.122C514.717 234.714 514.629 234.386 514.453 234.138C514.285 233.89 514.049 233.706 513.745 233.586C513.449 233.466 513.109 233.406 512.725 233.406C512.173 233.406 511.729 233.53 511.393 233.778C511.057 234.018 510.889 234.362 510.889 234.81C510.889 235.106 510.961 235.346 511.105 235.53C511.249 235.714 511.453 235.866 511.717 235.986C511.981 236.098 512.297 236.198 512.665 236.286L513.289 236.442C513.777 236.546 514.213 236.69 514.597 236.874C514.989 237.05 515.301 237.294 515.533 237.606C515.765 237.91 515.881 238.31 515.881 238.806C515.881 239.302 515.757 239.734 515.509 240.102C515.261 240.47 514.909 240.758 514.453 240.966C514.005 241.166 513.477 241.266 512.869 241.266Z" fill="#454654"/>
            <rect x="117.5" y="216.598" width="411" height="40" rx="7.5" stroke="#2E2F38"/>
        </g>
        <g opacity="0.2">
            <rect x="129" y="285.598" width="125" height="8" rx="4" fill="#23232A"/>
            <path d="M442.8 294.294C442.072 294.294 441.438 294.158 440.896 293.888C440.355 293.608 439.93 293.22 439.622 292.726C439.324 292.231 439.174 291.657 439.174 291.004V287.63C439.174 286.855 439.333 286.206 439.65 285.684C439.968 285.161 440.402 284.769 440.952 284.508C441.512 284.237 442.156 284.102 442.884 284.102C443.612 284.102 444.238 284.228 444.76 284.48C445.292 284.722 445.698 285.072 445.978 285.53C446.268 285.978 446.412 286.51 446.412 287.126H444.76C444.76 286.696 444.611 286.328 444.312 286.02C444.023 285.712 443.547 285.558 442.884 285.558C442.222 285.558 441.708 285.735 441.344 286.09C440.99 286.435 440.812 286.916 440.812 287.532V288.624H441.05C441.209 288.409 441.461 288.213 441.806 288.036C442.152 287.849 442.642 287.756 443.276 287.756C443.855 287.756 444.382 287.877 444.858 288.12C445.344 288.362 445.736 288.717 446.034 289.184C446.333 289.65 446.482 290.21 446.482 290.864V291.032C446.482 291.685 446.328 292.259 446.02 292.754C445.712 293.239 445.283 293.617 444.732 293.888C444.182 294.158 443.538 294.294 442.8 294.294ZM442.828 292.838C443.444 292.838 443.934 292.674 444.298 292.348C444.662 292.012 444.844 291.568 444.844 291.018V290.906C444.844 290.523 444.76 290.196 444.592 289.926C444.434 289.655 444.2 289.445 443.892 289.296C443.594 289.137 443.239 289.058 442.828 289.058C442.427 289.058 442.072 289.137 441.764 289.296C441.456 289.445 441.218 289.655 441.05 289.926C440.892 290.196 440.812 290.523 440.812 290.906V291.018C440.812 291.568 440.994 292.012 441.358 292.348C441.722 292.674 442.212 292.838 442.828 292.838ZM452.602 294.098V285.516H452.364L451.384 288.68H449.746L451.16 284.298H454.254V294.098H452.602ZM449.424 294.098V292.572H456.522V294.098H449.424ZM462.908 294.294C461.76 294.294 460.84 293.972 460.15 293.328C459.459 292.684 459.114 291.713 459.114 290.416V287.98C459.114 286.71 459.459 285.749 460.15 285.096C460.84 284.433 461.76 284.102 462.908 284.102C464.065 284.102 464.984 284.433 465.666 285.096C466.356 285.749 466.702 286.71 466.702 287.98V290.416C466.702 291.713 466.356 292.684 465.666 293.328C464.984 293.972 464.065 294.294 462.908 294.294ZM462.908 292.838C463.645 292.838 464.186 292.632 464.532 292.222C464.886 291.811 465.064 291.228 465.064 290.472V287.91C465.064 287.144 464.872 286.561 464.49 286.16C464.107 285.758 463.58 285.558 462.908 285.558C462.217 285.558 461.685 285.763 461.312 286.174C460.938 286.584 460.752 287.163 460.752 287.91V290.472C460.752 291.246 460.929 291.834 461.284 292.236C461.648 292.637 462.189 292.838 462.908 292.838Z" fill="#5C5E70"/>
            <path d="M479.024 294.098V286.61H476.324V285.698H482.732V286.61H480.032V294.098H479.024ZM483.652 294.098L486.244 285.698H488.02L490.612 294.098H489.568L488.92 291.974H485.344L484.696 294.098H483.652ZM485.596 291.062H488.656L487.216 286.31H487.048L485.596 291.062ZM495.832 294.266C495.224 294.266 494.68 294.158 494.2 293.942C493.72 293.726 493.34 293.402 493.06 292.97C492.788 292.53 492.652 291.982 492.652 291.326V291.074H493.648V291.326C493.648 292.022 493.852 292.542 494.26 292.886C494.668 293.222 495.192 293.39 495.832 293.39C496.488 293.39 496.988 293.242 497.332 292.946C497.676 292.65 497.848 292.278 497.848 291.83C497.848 291.518 497.768 291.27 497.608 291.086C497.456 290.902 497.24 290.754 496.96 290.642C496.68 290.522 496.352 290.418 495.976 290.33L495.352 290.174C494.864 290.046 494.432 289.89 494.056 289.706C493.68 289.522 493.384 289.282 493.168 288.986C492.96 288.682 492.856 288.294 492.856 287.822C492.856 287.35 492.972 286.942 493.204 286.598C493.444 286.254 493.776 285.99 494.2 285.806C494.632 285.622 495.128 285.53 495.688 285.53C496.256 285.53 496.764 285.63 497.212 285.83C497.668 286.022 498.024 286.31 498.28 286.694C498.544 287.07 498.676 287.546 498.676 288.122V288.626H497.68V288.122C497.68 287.714 497.592 287.386 497.416 287.138C497.248 286.89 497.012 286.706 496.708 286.586C496.412 286.466 496.072 286.406 495.688 286.406C495.136 286.406 494.692 286.53 494.356 286.778C494.02 287.018 493.852 287.362 493.852 287.81C493.852 288.106 493.924 288.346 494.068 288.53C494.212 288.714 494.416 288.866 494.68 288.986C494.944 289.098 495.26 289.198 495.628 289.286L496.252 289.442C496.74 289.546 497.176 289.69 497.56 289.874C497.952 290.05 498.264 290.294 498.496 290.606C498.728 290.91 498.844 291.31 498.844 291.806C498.844 292.302 498.72 292.734 498.472 293.102C498.224 293.47 497.872 293.758 497.416 293.966C496.968 294.166 496.44 294.266 495.832 294.266ZM501.595 294.098V285.698H502.603V289.358H502.771L506.323 285.698H507.667L503.575 289.85L507.811 294.098H506.431L502.771 290.366H502.603V294.098H501.595ZM512.869 294.266C512.261 294.266 511.717 294.158 511.237 293.942C510.757 293.726 510.377 293.402 510.097 292.97C509.825 292.53 509.689 291.982 509.689 291.326V291.074H510.685V291.326C510.685 292.022 510.889 292.542 511.297 292.886C511.705 293.222 512.229 293.39 512.869 293.39C513.525 293.39 514.025 293.242 514.369 292.946C514.713 292.65 514.885 292.278 514.885 291.83C514.885 291.518 514.805 291.27 514.645 291.086C514.493 290.902 514.277 290.754 513.997 290.642C513.717 290.522 513.389 290.418 513.013 290.33L512.389 290.174C511.901 290.046 511.469 289.89 511.093 289.706C510.717 289.522 510.421 289.282 510.205 288.986C509.997 288.682 509.893 288.294 509.893 287.822C509.893 287.35 510.009 286.942 510.241 286.598C510.481 286.254 510.813 285.99 511.237 285.806C511.669 285.622 512.165 285.53 512.725 285.53C513.293 285.53 513.801 285.63 514.249 285.83C514.705 286.022 515.061 286.31 515.317 286.694C515.581 287.07 515.713 287.546 515.713 288.122V288.626H514.717V288.122C514.717 287.714 514.629 287.386 514.453 287.138C514.285 286.89 514.049 286.706 513.745 286.586C513.449 286.466 513.109 286.406 512.725 286.406C512.173 286.406 511.729 286.53 511.393 286.778C511.057 287.018 510.889 287.362 510.889 287.81C510.889 288.106 510.961 288.346 511.105 288.53C511.249 288.714 511.453 288.866 511.717 288.986C511.981 289.098 512.297 289.198 512.665 289.286L513.289 289.442C513.777 289.546 514.213 289.69 514.597 289.874C514.989 290.05 515.301 290.294 515.533 290.606C515.765 290.91 515.881 291.31 515.881 291.806C515.881 292.302 515.757 292.734 515.509 293.102C515.261 293.47 514.909 293.758 514.453 293.966C514.005 294.166 513.477 294.266 512.869 294.266Z" fill="#454654"/>
            <rect x="117.5" y="269.598" width="411" height="40" rx="7.5" stroke="#2E2F38"/>
        </g>
    </g>
    <rect x="93.5" y="26.5972" width="459" height="262" rx="7.5" stroke="url(#paint0_linear_1156_2335)"/>
    <g filter="url(#filter0_d_1156_2335)">
        <rect x="45.625" y="58.8208" width="60" height="60" rx="30" fill="#23232A" shape-rendering="crispEdges"/>
        <path d="M72.3942 83.9716H78.8558" stroke="#ABACBA" stroke-width="1.4" stroke-linecap="round" stroke-linejoin="round"/>
        <path d="M89.3019 92.3586L83.4192 78.9913C82.8119 78.3904 81.9919 78.0533 81.1375 78.0533C80.2831 78.0533 79.4632 78.3904 78.8558 78.9913V94.2029" stroke="#ABACBA" stroke-width="1.4" stroke-linecap="round" stroke-linejoin="round"/>
        <path d="M72.3943 94.2029V78.9913C71.787 78.3904 70.967 78.0533 70.1126 78.0533C69.2582 78.0533 68.4383 78.3904 67.8309 78.9913L61.9482 92.3586" stroke="#ABACBA" stroke-width="1.4" stroke-linecap="round" stroke-linejoin="round"/>
        <path d="M67.0096 99.5882C69.9835 99.5882 72.3942 97.1774 72.3942 94.2036C72.3942 91.2297 69.9835 88.819 67.0096 88.819C64.0358 88.819 61.625 91.2297 61.625 94.2036C61.625 97.1774 64.0358 99.5882 67.0096 99.5882Z" stroke="#ABACBA" stroke-width="1.4" stroke-linecap="round" stroke-linejoin="round"/>
        <path d="M84.2404 99.5882C87.2142 99.5882 89.625 97.1774 89.625 94.2036C89.625 91.2297 87.2142 88.819 84.2404 88.819C81.2665 88.819 78.8558 91.2297 78.8558 94.2036C78.8558 97.1774 81.2665 99.5882 84.2404 99.5882Z" stroke="#ABACBA" stroke-width="1.4" stroke-linecap="round" stroke-linejoin="round"/>
        <rect x="46.125" y="59.3208" width="59" height="59" rx="29.5" stroke="#2E2F38" shape-rendering="crispEdges"/>
    </g>
    <g filter="url(#filter1_d_1156_2335)">
        <rect x="539" y="198.899" width="60" height="60" rx="30" fill="#23232A" shape-rendering="crispEdges"/>
        <path d="M563.996 237.321C562.279 242.425 555.473 242.425 555.473 242.425C555.473 242.425 555.473 235.619 560.577 233.903" stroke="#ABACBA" stroke-width="1.4" stroke-linecap="round" stroke-linejoin="round"/>
        <path d="M579.325 225.395L569.1 235.62L562.279 228.799L572.503 218.574C576.373 214.704 580.243 214.749 581.9 214.99C582.155 215.024 582.393 215.142 582.575 215.324C582.757 215.506 582.874 215.744 582.909 215.999C583.149 217.656 583.195 221.526 579.325 225.395Z" stroke="#ABACBA" stroke-width="1.4" stroke-linecap="round" stroke-linejoin="round"/>
        <path d="M577.623 227.097V236.825C577.619 237.142 577.489 237.445 577.262 237.668L572.398 242.547C572.244 242.701 572.05 242.81 571.839 242.863C571.627 242.916 571.405 242.91 571.197 242.847C570.988 242.784 570.8 242.665 570.654 242.503C570.507 242.341 570.408 242.143 570.365 241.929L569.1 235.62" stroke="#ABACBA" stroke-width="1.4" stroke-linecap="round" stroke-linejoin="round"/>
        <path d="M570.802 220.275H561.074C560.757 220.28 560.454 220.409 560.231 220.636L555.352 225.5C555.198 225.654 555.089 225.848 555.036 226.059C554.983 226.271 554.989 226.493 555.052 226.702C555.115 226.91 555.234 227.098 555.396 227.244C555.557 227.391 555.756 227.49 555.97 227.533L562.279 228.798" stroke="#ABACBA" stroke-width="1.4" stroke-linecap="round" stroke-linejoin="round"/>
        <rect x="539.5" y="199.399" width="59" height="59" rx="29.5" stroke="#2E2F38" shape-rendering="crispEdges"/>
    </g>
    <defs>
        <filter id="filter0_d_1156_2335" x="0.625" y="13.8208" width="150" height="150" filterUnits="userSpaceOnUse" color-interpolation-filters="sRGB">
            <feFlood flood-opacity="0" result="BackgroundImageFix"/>
            <feColorMatrix in="SourceAlpha" type="matrix" values="0 0 0 0 0 0 0 0 0 0 0 0 0 0 0 0 0 0 127 0" result="hardAlpha"/>
            <feOffset/>
            <feGaussianBlur stdDeviation="22.5"/>
            <feComposite in2="hardAlpha" operator="out"/>
            <feColorMatrix type="matrix" values="0 0 0 0 0.0470588 0 0 0 0 0.0470588 0 0 0 0 0.054902 0 0 0 1 0"/>
            <feBlend mode="normal" in2="BackgroundImageFix" result="effect1_dropShadow_1156_2335"/>
            <feBlend mode="normal" in="SourceGraphic" in2="effect1_dropShadow_1156_2335" result="shape"/>
        </filter>
        <filter id="filter1_d_1156_2335" x="494" y="153.899" width="150" height="150" filterUnits="userSpaceOnUse" color-interpolation-filters="sRGB">
            <feFlood flood-opacity="0" result="BackgroundImageFix"/>
            <feColorMatrix in="SourceAlpha" type="matrix" values="0 0 0 0 0 0 0 0 0 0 0 0 0 0 0 0 0 0 127 0" result="hardAlpha"/>
            <feOffset/>
            <feGaussianBlur stdDeviation="22.5"/>
            <feComposite in2="hardAlpha" operator="out"/>
            <feColorMatrix type="matrix" values="0 0 0 0 0.0470588 0 0 0 0 0.0470588 0 0 0 0 0.054902 0 0 0 1 0"/>
            <feBlend mode="normal" in2="BackgroundImageFix" result="effect1_dropShadow_1156_2335"/>
            <feBlend mode="normal" in="SourceGraphic" in2="effect1_dropShadow_1156_2335" result="shape"/>
        </filter>
        <linearGradient id="paint0_linear_1156_2335" x1="337.011" y1="26.0972" x2="337.011" y2="289.097" gradientUnits="userSpaceOnUse">
            <stop stop-color="#454654"/>
            <stop offset="1" stop-color="#22232A"/>
        </linearGradient>
        <clipPath id="clip0_1156_2335">
            <rect x="93" y="26.0972" width="460" height="263" rx="8" fill="white"/>
        </clipPath>
    </defs>
</svg>
