<svg width="437" height="244" viewBox="0 0 437 244" fill="none" xmlns="http://www.w3.org/2000/svg">
    <g clip-path="url(#clip0_1149_1796)">
        <rect y="0.097168" width="437" height="243.459" rx="5.46938" fill="#23232A"/>
        <rect x="16.75" y="16.847" width="983.804" height="273.218" rx="5.12754" fill="#17171C"/>
        <rect x="37.3562" y="34.5571" width="63.7931" height="24.2427" stroke="#454654" stroke-width="0.875751"/>
        <line y1="-0.437876" x2="68.1674" y2="-0.437876" transform="matrix(0.934929 -0.354834 0.359451 0.933164 37.8555 59.2379)" stroke="#454654" stroke-width="0.875751"/>
        <line y1="-0.437876" x2="68.1674" y2="-0.437876" transform="matrix(0.934929 0.354834 -0.359451 0.933164 36.9183 35.0499)" stroke="#454654" stroke-width="0.875751"/>
        <path d="M1000.9 76.1683H16.4081V77.5357H1000.9V76.1683Z" fill="#454654" mask="url(#path-4-inside-1_1149_1796)"/>
        <path d="M186.762 112.367V96.524H181.16V93.6021H195.582V96.524H189.979V112.367H186.762ZM200.003 112.742C199.074 112.742 198.234 112.581 197.484 112.26C196.733 111.92 196.134 111.438 195.688 110.812C195.259 110.187 195.044 109.418 195.044 108.507C195.044 107.613 195.259 106.863 195.688 106.255C196.134 105.647 196.742 105.192 197.51 104.888C198.279 104.566 199.155 104.405 200.137 104.405H203.971V103.601C203.971 102.904 203.756 102.341 203.327 101.912C202.899 101.465 202.228 101.242 201.317 101.242C200.423 101.242 199.744 101.456 199.28 101.885C198.833 102.296 198.538 102.833 198.395 103.494L195.554 102.556C195.768 101.859 196.108 101.224 196.572 100.652C197.055 100.08 197.689 99.6247 198.475 99.2851C199.262 98.9277 200.227 98.749 201.371 98.749C203.104 98.749 204.462 99.1868 205.445 100.063C206.446 100.92 206.946 102.171 206.946 103.815V109.016C206.946 109.552 207.197 109.82 207.697 109.82H208.823V112.367H206.652C206.008 112.367 205.481 112.206 205.07 111.884C204.659 111.563 204.453 111.125 204.453 110.571V110.517H203.998C203.89 110.767 203.703 111.071 203.435 111.429C203.167 111.786 202.756 112.099 202.202 112.367C201.665 112.617 200.933 112.742 200.003 112.742ZM200.513 110.222C201.531 110.222 202.362 109.936 203.006 109.364C203.649 108.775 203.971 107.988 203.971 107.005V106.737H200.325C199.664 106.737 199.128 106.88 198.717 107.166C198.306 107.452 198.1 107.872 198.1 108.426C198.1 108.962 198.315 109.4 198.744 109.74C199.172 110.061 199.762 110.222 200.513 110.222ZM216.737 112.742C215.022 112.742 213.61 112.367 212.502 111.616C211.394 110.866 210.724 109.767 210.491 108.319L213.333 107.595C213.458 108.274 213.681 108.81 214.003 109.204C214.325 109.597 214.718 109.874 215.183 110.035C215.665 110.195 216.183 110.276 216.737 110.276C217.577 110.276 218.203 110.124 218.614 109.82C219.043 109.516 219.257 109.132 219.257 108.667C219.257 108.185 219.052 107.828 218.641 107.595C218.247 107.363 217.64 107.166 216.818 107.005L215.987 106.871C215.075 106.693 214.244 106.451 213.494 106.148C212.743 105.826 212.136 105.397 211.671 104.861C211.224 104.307 211.001 103.61 211.001 102.77C211.001 101.483 211.474 100.491 212.421 99.7945C213.387 99.0975 214.646 98.749 216.201 98.749C217.685 98.749 218.909 99.0796 219.874 99.7408C220.839 100.402 221.464 101.287 221.75 102.395L218.909 103.253C218.766 102.502 218.453 101.975 217.97 101.671C217.488 101.349 216.898 101.188 216.201 101.188C215.486 101.188 214.932 101.314 214.539 101.564C214.164 101.814 213.976 102.171 213.976 102.636C213.976 103.101 214.173 103.449 214.566 103.681C214.959 103.914 215.486 104.084 216.148 104.191L216.979 104.352C217.962 104.53 218.846 104.763 219.632 105.049C220.437 105.335 221.071 105.746 221.536 106.282C222 106.818 222.233 107.542 222.233 108.453C222.233 109.829 221.732 110.892 220.732 111.643C219.749 112.376 218.417 112.742 216.737 112.742ZM225.353 112.367V93.6021H228.436V104.137H228.891L233.663 99.1243H237.711L231.304 105.531L237.925 112.367H233.931L228.891 106.979H228.436V112.367H225.353ZM245.403 112.742C243.687 112.742 242.275 112.367 241.167 111.616C240.059 110.866 239.389 109.767 239.157 108.319L241.998 107.595C242.123 108.274 242.347 108.81 242.668 109.204C242.99 109.597 243.383 109.874 243.848 110.035C244.33 110.195 244.849 110.276 245.403 110.276C246.243 110.276 246.868 110.124 247.279 109.82C247.708 109.516 247.923 109.132 247.923 108.667C247.923 108.185 247.717 107.828 247.306 107.595C246.913 107.363 246.305 107.166 245.483 107.005L244.652 106.871C243.741 106.693 242.91 106.451 242.159 106.148C241.409 105.826 240.801 105.397 240.336 104.861C239.89 104.307 239.666 103.61 239.666 102.77C239.666 101.483 240.14 100.491 241.087 99.7945C242.052 99.0975 243.312 98.749 244.867 98.749C246.35 98.749 247.574 99.0796 248.539 99.7408C249.504 100.402 250.13 101.287 250.416 102.395L247.574 103.253C247.431 102.502 247.118 101.975 246.636 101.671C246.153 101.349 245.564 101.188 244.867 101.188C244.152 101.188 243.598 101.314 243.205 101.564C242.829 101.814 242.642 102.171 242.642 102.636C242.642 103.101 242.838 103.449 243.231 103.681C243.625 103.914 244.152 104.084 244.813 104.191L245.644 104.352C246.627 104.53 247.512 104.763 248.298 105.049C249.102 105.335 249.737 105.746 250.201 106.282C250.666 106.818 250.898 107.542 250.898 108.453C250.898 109.829 250.398 110.892 249.397 111.643C248.414 112.376 247.083 112.742 245.403 112.742Z" fill="#454654"/>
        <rect x="180.489" y="126.041" width="153.826" height="0.683672" fill="#454654"/>
        <path d="M183.082 140.308C182.639 140.308 182.256 140.229 181.933 140.071C181.616 139.912 181.37 139.688 181.195 139.398C181.02 139.108 180.932 138.772 180.932 138.389V138.307H181.901V138.381C181.901 138.692 181.999 138.949 182.196 139.152C182.398 139.354 182.688 139.455 183.066 139.455C183.443 139.455 183.736 139.351 183.943 139.143C184.151 138.936 184.255 138.662 184.255 138.323V138.249C184.255 137.916 184.151 137.65 183.943 137.453C183.741 137.257 183.484 137.158 183.172 137.158C182.997 137.158 182.852 137.183 182.737 137.232C182.628 137.281 182.538 137.344 182.467 137.421C182.396 137.492 182.338 137.566 182.294 137.642H181.113V134.451H184.993V135.32H182.065V136.863H182.204C182.264 136.781 182.341 136.704 182.434 136.633C182.532 136.556 182.658 136.494 182.811 136.444C182.97 136.39 183.158 136.362 183.377 136.362C183.716 136.362 184.023 136.436 184.296 136.584C184.575 136.726 184.797 136.937 184.961 137.216C185.125 137.494 185.207 137.836 185.207 138.241V138.331C185.207 138.731 185.122 139.078 184.952 139.373C184.783 139.669 184.54 139.898 184.222 140.062C183.905 140.226 183.525 140.308 183.082 140.308ZM186.873 140.194V139.529C186.873 139.124 186.939 138.793 187.07 138.536C187.207 138.274 187.401 138.061 187.653 137.896C187.904 137.727 188.21 137.587 188.571 137.478L189.096 137.314C189.31 137.243 189.49 137.158 189.638 137.06C189.786 136.961 189.9 136.841 189.983 136.699C190.065 136.551 190.106 136.379 190.106 136.182V136.149C190.106 135.854 190.004 135.621 189.802 135.452C189.6 135.277 189.329 135.189 188.99 135.189C188.651 135.189 188.375 135.282 188.161 135.468C187.948 135.649 187.841 135.917 187.841 136.272V136.412H186.89V136.288C186.89 135.873 186.983 135.52 187.169 135.23C187.354 134.94 187.606 134.719 187.923 134.566C188.241 134.412 188.596 134.336 188.99 134.336C189.384 134.336 189.736 134.412 190.048 134.566C190.365 134.713 190.611 134.921 190.787 135.189C190.967 135.457 191.057 135.772 191.057 136.133V136.215C191.057 136.581 190.983 136.89 190.836 137.142C190.688 137.393 190.483 137.601 190.22 137.765C189.963 137.924 189.671 138.055 189.343 138.159L188.834 138.315C188.588 138.391 188.391 138.473 188.243 138.561C188.101 138.649 188 138.75 187.94 138.865C187.88 138.974 187.849 139.113 187.849 139.283V139.34H191.008V140.194H186.873ZM194.84 140.308C194.414 140.308 194.034 140.232 193.7 140.079C193.372 139.926 193.115 139.707 192.929 139.422C192.743 139.133 192.65 138.788 192.65 138.389V138.241H193.601V138.364C193.601 138.698 193.714 138.963 193.938 139.16C194.168 139.357 194.468 139.455 194.84 139.455C195.212 139.455 195.502 139.365 195.71 139.185C195.918 138.999 196.022 138.766 196.022 138.487V138.413C196.022 138.216 195.972 138.058 195.874 137.937C195.781 137.817 195.652 137.73 195.488 137.675C195.33 137.615 195.149 137.585 194.947 137.585H193.848V136.518L195.792 135.427V135.304H192.789V134.451H196.842V135.731L195.004 136.764V136.887H195.341C195.614 136.887 195.874 136.942 196.12 137.051C196.372 137.155 196.577 137.317 196.735 137.535C196.894 137.754 196.973 138.039 196.973 138.389V138.479C196.973 138.851 196.883 139.174 196.703 139.447C196.528 139.721 196.279 139.934 195.956 140.087C195.639 140.235 195.267 140.308 194.84 140.308Z" fill="#454654"/>
        <path d="M182.557 156.663V151.544H180.711V150.92H185.092V151.544H183.246V156.663H182.557ZM185.721 156.663L187.493 150.92H188.707L190.479 156.663H189.766L189.323 155.211H186.878L186.435 156.663H185.721ZM187.05 154.587H189.142L188.158 151.339H188.043L187.05 154.587ZM194.048 156.778C193.632 156.778 193.26 156.704 192.932 156.556C192.604 156.409 192.344 156.187 192.153 155.892C191.967 155.591 191.874 155.216 191.874 154.768V154.596H192.555V154.768C192.555 155.244 192.694 155.599 192.973 155.834C193.252 156.064 193.61 156.179 194.048 156.179C194.496 156.179 194.838 156.078 195.073 155.875C195.309 155.673 195.426 155.419 195.426 155.112C195.426 154.899 195.371 154.73 195.262 154.604C195.158 154.478 195.01 154.377 194.819 154.3C194.628 154.218 194.403 154.147 194.146 154.087L193.72 153.98C193.386 153.893 193.091 153.786 192.834 153.66C192.577 153.534 192.374 153.37 192.227 153.168C192.084 152.96 192.013 152.695 192.013 152.372C192.013 152.05 192.093 151.771 192.251 151.535C192.415 151.3 192.642 151.12 192.932 150.994C193.227 150.868 193.567 150.805 193.949 150.805C194.338 150.805 194.685 150.874 194.991 151.01C195.303 151.142 195.546 151.339 195.722 151.601C195.902 151.858 195.992 152.184 195.992 152.577V152.922H195.311V152.577C195.311 152.298 195.251 152.074 195.131 151.905C195.016 151.735 194.855 151.609 194.647 151.527C194.444 151.445 194.212 151.404 193.949 151.404C193.572 151.404 193.268 151.489 193.039 151.658C192.809 151.823 192.694 152.058 192.694 152.364C192.694 152.566 192.743 152.73 192.842 152.856C192.94 152.982 193.08 153.086 193.26 153.168C193.441 153.245 193.657 153.313 193.908 153.373L194.335 153.48C194.669 153.551 194.967 153.649 195.229 153.775C195.497 153.895 195.711 154.062 195.869 154.276C196.028 154.483 196.107 154.757 196.107 155.096C196.107 155.435 196.022 155.73 195.853 155.982C195.683 156.234 195.443 156.431 195.131 156.573C194.825 156.709 194.464 156.778 194.048 156.778ZM197.988 156.663V150.92H198.677V153.422H198.792L201.221 150.92H202.139L199.342 153.759L202.238 156.663H201.294L198.792 154.111H198.677V156.663H197.988ZM205.695 156.778C205.28 156.778 204.908 156.704 204.58 156.556C204.251 156.409 203.992 156.187 203.8 155.892C203.614 155.591 203.521 155.216 203.521 154.768V154.596H204.202V154.768C204.202 155.244 204.342 155.599 204.621 155.834C204.9 156.064 205.258 156.179 205.695 156.179C206.144 156.179 206.486 156.078 206.721 155.875C206.956 155.673 207.074 155.419 207.074 155.112C207.074 154.899 207.019 154.73 206.91 154.604C206.806 154.478 206.658 154.377 206.467 154.3C206.275 154.218 206.051 154.147 205.794 154.087L205.367 153.98C205.034 153.893 204.738 153.786 204.481 153.66C204.224 153.534 204.022 153.37 203.874 153.168C203.732 152.96 203.661 152.695 203.661 152.372C203.661 152.05 203.74 151.771 203.899 151.535C204.063 151.3 204.29 151.12 204.58 150.994C204.875 150.868 205.214 150.805 205.597 150.805C205.985 150.805 206.333 150.874 206.639 151.01C206.951 151.142 207.194 151.339 207.369 151.601C207.55 151.858 207.64 152.184 207.64 152.577V152.922H206.959V152.577C206.959 152.298 206.899 152.074 206.778 151.905C206.663 151.735 206.502 151.609 206.294 151.527C206.092 151.445 205.859 151.404 205.597 151.404C205.22 151.404 204.916 151.489 204.686 151.658C204.457 151.823 204.342 152.058 204.342 152.364C204.342 152.566 204.391 152.73 204.489 152.856C204.588 152.982 204.727 153.086 204.908 153.168C205.088 153.245 205.304 153.313 205.556 153.373L205.983 153.48C206.316 153.551 206.614 153.649 206.877 153.775C207.145 153.895 207.358 154.062 207.517 154.276C207.675 154.483 207.755 154.757 207.755 155.096C207.755 155.435 207.67 155.73 207.5 155.982C207.331 156.234 207.09 156.431 206.778 156.573C206.472 156.709 206.111 156.778 205.695 156.778ZM212.563 156.663V150.92H213.252V156.663H212.563ZM215.387 156.663V150.92H216.724L218.726 156.228H218.832V150.92H219.513V156.663H218.176L216.182 151.347H216.067V156.663H215.387ZM224.582 156.663V150.92H226.781C227.126 150.92 227.432 150.988 227.7 151.125C227.973 151.256 228.19 151.445 228.348 151.691C228.507 151.937 228.586 152.236 228.586 152.586V152.692C228.586 153.037 228.504 153.335 228.34 153.586C228.181 153.833 227.965 154.021 227.692 154.153C227.418 154.284 227.115 154.349 226.781 154.349H225.272V156.663H224.582ZM225.272 153.726H226.707C227.074 153.726 227.364 153.636 227.577 153.455C227.79 153.269 227.897 153.009 227.897 152.676V152.594C227.897 152.26 227.79 152.003 227.577 151.823C227.369 151.637 227.079 151.544 226.707 151.544H225.272V153.726ZM230.33 156.663V150.92H232.652C233.007 150.92 233.319 150.983 233.587 151.109C233.861 151.229 234.074 151.404 234.227 151.634C234.38 151.858 234.457 152.129 234.457 152.446V152.536C234.457 152.914 234.367 153.212 234.186 153.431C234.006 153.649 233.792 153.797 233.546 153.874V153.988C233.743 153.994 233.904 154.06 234.03 154.185C234.161 154.306 234.227 154.489 234.227 154.735V156.663H233.546V154.817C233.546 154.653 233.5 154.527 233.407 154.44C233.319 154.352 233.185 154.308 233.005 154.308H231.019V156.663H230.33ZM231.019 153.685H232.586C232.964 153.685 233.253 153.595 233.456 153.414C233.664 153.228 233.768 152.971 233.768 152.643V152.586C233.768 152.257 233.666 152.003 233.464 151.823C233.262 151.637 232.969 151.544 232.586 151.544H231.019V153.685ZM238.41 156.778C237.726 156.778 237.179 156.581 236.769 156.187C236.364 155.788 236.162 155.208 236.162 154.448V153.135C236.162 152.375 236.364 151.798 236.769 151.404C237.179 151.005 237.726 150.805 238.41 150.805C239.099 150.805 239.646 151.005 240.051 151.404C240.461 151.798 240.666 152.375 240.666 153.135V154.448C240.666 155.208 240.461 155.788 240.051 156.187C239.646 156.581 239.099 156.778 238.41 156.778ZM238.41 156.163C238.908 156.163 239.293 156.015 239.567 155.719C239.84 155.419 239.977 155.003 239.977 154.472V153.111C239.977 152.58 239.84 152.167 239.567 151.872C239.293 151.571 238.908 151.421 238.41 151.421C237.918 151.421 237.535 151.571 237.261 151.872C236.988 152.167 236.851 152.58 236.851 153.111V154.472C236.851 155.003 236.988 155.419 237.261 155.719C237.535 156.015 237.918 156.163 238.41 156.163ZM244.636 156.778C244.21 156.778 243.832 156.69 243.504 156.515C243.182 156.335 242.927 156.072 242.741 155.728C242.561 155.383 242.471 154.957 242.471 154.448V153.135C242.471 152.375 242.673 151.798 243.078 151.404C243.482 151.005 244.027 150.805 244.71 150.805C245.388 150.805 245.905 150.991 246.261 151.363C246.616 151.735 246.794 152.233 246.794 152.856V152.897H246.113V152.84C246.113 152.566 246.064 152.323 245.965 152.11C245.867 151.896 245.714 151.73 245.506 151.609C245.298 151.483 245.033 151.421 244.71 151.421C244.223 151.421 243.843 151.571 243.57 151.872C243.296 152.167 243.16 152.583 243.16 153.119V154.464C243.16 155 243.296 155.419 243.57 155.719C243.843 156.015 244.226 156.163 244.718 156.163C245.2 156.163 245.553 156.026 245.777 155.752C246.006 155.479 246.121 155.115 246.121 154.661V154.522H244.382V153.931H246.794V156.663H246.171V156.039H246.056C245.996 156.16 245.911 156.277 245.801 156.392C245.692 156.507 245.544 156.6 245.358 156.671C245.172 156.742 244.932 156.778 244.636 156.778ZM248.871 156.663V150.92H251.193C251.548 150.92 251.86 150.983 252.128 151.109C252.401 151.229 252.615 151.404 252.768 151.634C252.921 151.858 252.998 152.129 252.998 152.446V152.536C252.998 152.914 252.907 153.212 252.727 153.431C252.546 153.649 252.333 153.797 252.087 153.874V153.988C252.284 153.994 252.445 154.06 252.571 154.185C252.702 154.306 252.768 154.489 252.768 154.735V156.663H252.087V154.817C252.087 154.653 252.04 154.527 251.947 154.44C251.86 154.352 251.726 154.308 251.545 154.308H249.56V156.663H248.871ZM249.56 153.685H251.127C251.504 153.685 251.794 153.595 251.997 153.414C252.205 153.228 252.308 152.971 252.308 152.643V152.586C252.308 152.257 252.207 152.003 252.005 151.823C251.803 151.637 251.51 151.544 251.127 151.544H249.56V153.685ZM254.867 156.663V150.92H258.403V151.544H255.556V153.463H258.173V154.087H255.556V156.039H258.444V156.663H254.867ZM262.222 156.778C261.806 156.778 261.434 156.704 261.106 156.556C260.778 156.409 260.518 156.187 260.327 155.892C260.141 155.591 260.048 155.216 260.048 154.768V154.596H260.729V154.768C260.729 155.244 260.868 155.599 261.147 155.834C261.426 156.064 261.784 156.179 262.222 156.179C262.67 156.179 263.012 156.078 263.247 155.875C263.482 155.673 263.6 155.419 263.6 155.112C263.6 154.899 263.545 154.73 263.436 154.604C263.332 154.478 263.184 154.377 262.993 154.3C262.801 154.218 262.577 154.147 262.32 154.087L261.894 153.98C261.56 153.893 261.265 153.786 261.008 153.66C260.75 153.534 260.548 153.37 260.4 153.168C260.258 152.96 260.187 152.695 260.187 152.372C260.187 152.05 260.266 151.771 260.425 151.535C260.589 151.3 260.816 151.12 261.106 150.994C261.401 150.868 261.74 150.805 262.123 150.805C262.512 150.805 262.859 150.874 263.165 151.01C263.477 151.142 263.72 151.339 263.895 151.601C264.076 151.858 264.166 152.184 264.166 152.577V152.922H263.485V152.577C263.485 152.298 263.425 152.074 263.305 151.905C263.19 151.735 263.028 151.609 262.821 151.527C262.618 151.445 262.386 151.404 262.123 151.404C261.746 151.404 261.442 151.489 261.213 151.658C260.983 151.823 260.868 152.058 260.868 152.364C260.868 152.566 260.917 152.73 261.016 152.856C261.114 152.982 261.254 153.086 261.434 153.168C261.615 153.245 261.831 153.313 262.082 153.373L262.509 153.48C262.843 153.551 263.141 153.649 263.403 153.775C263.671 153.895 263.884 154.062 264.043 154.276C264.202 154.483 264.281 154.757 264.281 155.096C264.281 155.435 264.196 155.73 264.027 155.982C263.857 156.234 263.616 156.431 263.305 156.573C262.998 156.709 262.637 156.778 262.222 156.778ZM268.074 156.778C267.658 156.778 267.286 156.704 266.958 156.556C266.63 156.409 266.37 156.187 266.178 155.892C265.992 155.591 265.899 155.216 265.899 154.768V154.596H266.58V154.768C266.58 155.244 266.72 155.599 266.999 155.834C267.278 156.064 267.636 156.179 268.074 156.179C268.522 156.179 268.864 156.078 269.099 155.875C269.334 155.673 269.452 155.419 269.452 155.112C269.452 154.899 269.397 154.73 269.288 154.604C269.184 154.478 269.036 154.377 268.845 154.3C268.653 154.218 268.429 154.147 268.172 154.087L267.745 153.98C267.412 153.893 267.116 153.786 266.859 153.66C266.602 153.534 266.4 153.37 266.252 153.168C266.11 152.96 266.039 152.695 266.039 152.372C266.039 152.05 266.118 151.771 266.277 151.535C266.441 151.3 266.668 151.12 266.958 150.994C267.253 150.868 267.592 150.805 267.975 150.805C268.363 150.805 268.711 150.874 269.017 151.01C269.329 151.142 269.572 151.339 269.747 151.601C269.928 151.858 270.018 152.184 270.018 152.577V152.922H269.337V152.577C269.337 152.298 269.277 152.074 269.156 151.905C269.042 151.735 268.88 151.609 268.672 151.527C268.47 151.445 268.238 151.404 267.975 151.404C267.598 151.404 267.294 151.489 267.064 151.658C266.835 151.823 266.72 152.058 266.72 152.364C266.72 152.566 266.769 152.73 266.868 152.856C266.966 152.982 267.105 153.086 267.286 153.168C267.466 153.245 267.682 153.313 267.934 153.373L268.361 153.48C268.694 153.551 268.992 153.649 269.255 153.775C269.523 153.895 269.736 154.062 269.895 154.276C270.053 154.483 270.133 154.757 270.133 155.096C270.133 155.435 270.048 155.73 269.878 155.982C269.709 156.234 269.468 156.431 269.156 156.573C268.85 156.709 268.489 156.778 268.074 156.778Z" fill="#454654"/>
        <rect x="347.989" y="126.04" width="153.826" height="0.683672" fill="#454654"/>
        <path d="M350.458 140.308C350.032 140.308 349.663 140.237 349.351 140.095C349.045 139.947 348.807 139.742 348.637 139.48C348.468 139.212 348.383 138.897 348.383 138.536H349.351C349.351 138.788 349.438 139.004 349.613 139.184C349.794 139.365 350.076 139.455 350.458 139.455C350.847 139.455 351.145 139.354 351.353 139.152C351.566 138.944 351.673 138.659 351.673 138.298V137.658H351.533C351.435 137.784 351.287 137.902 351.09 138.011C350.893 138.115 350.603 138.167 350.221 138.167C349.887 138.167 349.578 138.096 349.294 137.954C349.009 137.812 348.779 137.604 348.604 137.33C348.435 137.057 348.35 136.729 348.35 136.346V136.247C348.35 135.859 348.44 135.523 348.621 135.238C348.801 134.954 349.053 134.732 349.376 134.574C349.698 134.415 350.073 134.336 350.5 134.336C350.926 134.336 351.298 134.418 351.615 134.582C351.938 134.741 352.187 134.965 352.362 135.255C352.537 135.545 352.624 135.881 352.624 136.264V138.241C352.624 138.695 352.531 139.075 352.345 139.381C352.165 139.688 351.911 139.92 351.582 140.079C351.26 140.232 350.885 140.308 350.458 140.308ZM350.483 137.404C350.729 137.404 350.94 137.36 351.115 137.273C351.29 137.18 351.427 137.054 351.525 136.896C351.623 136.731 351.673 136.54 351.673 136.321V136.256C351.673 135.927 351.566 135.668 351.353 135.476C351.139 135.285 350.85 135.189 350.483 135.189C350.122 135.189 349.835 135.285 349.622 135.476C349.408 135.668 349.302 135.927 349.302 136.256V136.321C349.302 136.54 349.351 136.731 349.449 136.896C349.548 137.054 349.685 137.18 349.86 137.273C350.04 137.36 350.248 137.404 350.483 137.404ZM354.537 141.359V140.833H354.84C355.076 140.833 355.193 140.716 355.193 140.481V140.218H355.062C354.86 140.218 354.69 140.158 354.553 140.038C354.417 139.912 354.348 139.753 354.348 139.562C354.348 139.359 354.417 139.195 354.553 139.07C354.69 138.938 354.86 138.873 355.062 138.873C355.27 138.873 355.439 138.938 355.571 139.07C355.702 139.201 355.767 139.373 355.767 139.586V140.489C355.767 141.069 355.48 141.359 354.906 141.359H354.537ZM359.625 140.308C359.198 140.308 358.826 140.229 358.509 140.07C358.192 139.906 357.943 139.679 357.763 139.39C357.588 139.1 357.5 138.763 357.5 138.38V136.403C357.5 135.949 357.593 135.569 357.779 135.263C357.965 134.957 358.219 134.727 358.542 134.574C358.87 134.415 359.247 134.336 359.674 134.336C360.101 134.336 360.467 134.41 360.773 134.557C361.085 134.7 361.323 134.905 361.487 135.173C361.657 135.435 361.742 135.747 361.742 136.108H360.773C360.773 135.856 360.686 135.64 360.511 135.46C360.341 135.279 360.062 135.189 359.674 135.189C359.286 135.189 358.985 135.293 358.772 135.501C358.564 135.703 358.46 135.985 358.46 136.346V136.986H358.599C358.692 136.86 358.84 136.745 359.042 136.641C359.245 136.532 359.532 136.477 359.904 136.477C360.243 136.477 360.552 136.548 360.831 136.69C361.115 136.833 361.345 137.04 361.52 137.314C361.695 137.587 361.783 137.916 361.783 138.298V138.397C361.783 138.78 361.692 139.116 361.512 139.406C361.331 139.69 361.08 139.912 360.757 140.07C360.434 140.229 360.057 140.308 359.625 140.308ZM359.641 139.455C360.002 139.455 360.289 139.359 360.503 139.168C360.716 138.971 360.823 138.711 360.823 138.389V138.323C360.823 138.099 360.773 137.907 360.675 137.749C360.582 137.59 360.445 137.467 360.265 137.38C360.09 137.287 359.882 137.24 359.641 137.24C359.406 137.24 359.198 137.287 359.018 137.38C358.837 137.467 358.698 137.59 358.599 137.749C358.506 137.907 358.46 138.099 358.46 138.323V138.389C358.46 138.711 358.567 138.971 358.78 139.168C358.993 139.359 359.28 139.455 359.641 139.455ZM365.992 140.194V139.029H363.227V137.921L365.213 134.451H366.952V138.175H367.896V139.029H366.952V140.194H365.992ZM364.13 138.175H365.992V135.058H365.853L364.13 138.052V138.175ZM371.408 140.308C370.735 140.308 370.196 140.12 369.792 139.742C369.387 139.365 369.185 138.796 369.185 138.036V136.608C369.185 135.865 369.387 135.301 369.792 134.918C370.196 134.53 370.735 134.336 371.408 134.336C372.086 134.336 372.625 134.53 373.024 134.918C373.429 135.301 373.631 135.865 373.631 136.608V138.036C373.631 138.796 373.429 139.365 373.024 139.742C372.625 140.12 372.086 140.308 371.408 140.308ZM371.408 139.455C371.84 139.455 372.157 139.335 372.36 139.094C372.567 138.854 372.671 138.512 372.671 138.069V136.567C372.671 136.119 372.559 135.777 372.335 135.542C372.111 135.307 371.802 135.189 371.408 135.189C371.003 135.189 370.691 135.309 370.473 135.55C370.254 135.791 370.144 136.13 370.144 136.567V138.069C370.144 138.523 370.248 138.867 370.456 139.102C370.669 139.338 370.987 139.455 371.408 139.455Z" fill="#454654"/>
        <path d="M350.721 156.778C350.037 156.778 349.493 156.581 349.088 156.187C348.684 155.788 348.481 155.208 348.481 154.448V153.135C348.481 152.375 348.684 151.798 349.088 151.404C349.493 151.005 350.037 150.805 350.721 150.805C351.399 150.805 351.919 150.994 352.28 151.371C352.646 151.749 352.829 152.266 352.829 152.922V152.963H352.149V152.897C352.149 152.465 352.031 152.112 351.796 151.839C351.566 151.56 351.208 151.421 350.721 151.421C350.234 151.421 349.854 151.571 349.581 151.872C349.307 152.167 349.17 152.583 349.17 153.119V154.464C349.17 155 349.307 155.419 349.581 155.719C349.854 156.015 350.234 156.162 350.721 156.162C351.208 156.162 351.566 156.026 351.796 155.752C352.031 155.473 352.149 155.118 352.149 154.686V154.554H352.829V154.661C352.829 155.317 352.646 155.834 352.28 156.212C351.919 156.589 351.399 156.778 350.721 156.778ZM354.73 156.663V150.92H355.419V156.039H358.323V156.663H354.73ZM361.952 156.778C361.268 156.778 360.722 156.581 360.311 156.187C359.907 155.788 359.704 155.208 359.704 154.448V153.135C359.704 152.375 359.907 151.798 360.311 151.404C360.722 151.005 361.268 150.805 361.952 150.805C362.641 150.805 363.188 151.005 363.593 151.404C364.003 151.798 364.208 152.375 364.208 153.135V154.448C364.208 155.208 364.003 155.788 363.593 156.187C363.188 156.581 362.641 156.778 361.952 156.778ZM361.952 156.162C362.45 156.162 362.835 156.015 363.109 155.719C363.382 155.419 363.519 155.003 363.519 154.472V153.111C363.519 152.58 363.382 152.167 363.109 151.872C362.835 151.571 362.45 151.421 361.952 151.421C361.46 151.421 361.077 151.571 360.804 151.872C360.53 152.167 360.393 152.58 360.393 153.111V154.472C360.393 155.003 360.53 155.419 360.804 155.719C361.077 156.015 361.46 156.162 361.952 156.162ZM368.088 156.778C367.673 156.778 367.301 156.704 366.973 156.556C366.644 156.409 366.385 156.187 366.193 155.892C366.007 155.591 365.914 155.216 365.914 154.768V154.595H366.595V154.768C366.595 155.244 366.735 155.599 367.014 155.834C367.293 156.064 367.651 156.179 368.088 156.179C368.537 156.179 368.879 156.078 369.114 155.875C369.349 155.673 369.467 155.419 369.467 155.112C369.467 154.899 369.412 154.729 369.303 154.604C369.199 154.478 369.051 154.377 368.86 154.3C368.668 154.218 368.444 154.147 368.187 154.087L367.76 153.98C367.427 153.893 367.131 153.786 366.874 153.66C366.617 153.534 366.415 153.37 366.267 153.168C366.125 152.96 366.054 152.695 366.054 152.372C366.054 152.049 366.133 151.771 366.292 151.535C366.456 151.3 366.683 151.12 366.973 150.994C367.268 150.868 367.607 150.805 367.99 150.805C368.378 150.805 368.726 150.874 369.032 151.01C369.344 151.142 369.587 151.338 369.762 151.601C369.942 151.858 370.033 152.183 370.033 152.577V152.922H369.352V152.577C369.352 152.298 369.292 152.074 369.171 151.905C369.056 151.735 368.895 151.609 368.687 151.527C368.485 151.445 368.252 151.404 367.99 151.404C367.612 151.404 367.309 151.489 367.079 151.658C366.85 151.823 366.735 152.058 366.735 152.364C366.735 152.566 366.784 152.73 366.882 152.856C366.981 152.982 367.12 153.086 367.301 153.168C367.481 153.245 367.697 153.313 367.949 153.373L368.375 153.48C368.709 153.551 369.007 153.649 369.27 153.775C369.538 153.895 369.751 154.062 369.91 154.276C370.068 154.483 370.148 154.757 370.148 155.096C370.148 155.435 370.063 155.73 369.893 155.982C369.724 156.234 369.483 156.43 369.171 156.573C368.865 156.709 368.504 156.778 368.088 156.778ZM372.029 156.663V150.92H375.565V151.544H372.718V153.463H375.335V154.087H372.718V156.039H375.606V156.663H372.029ZM377.472 156.663V150.92H379.252C380.012 150.92 380.598 151.111 381.008 151.494C381.423 151.877 381.631 152.465 381.631 153.258V154.325C381.631 155.123 381.423 155.714 381.008 156.097C380.598 156.474 380.012 156.663 379.252 156.663H377.472ZM378.161 156.039H379.26C379.813 156.039 380.231 155.903 380.516 155.629C380.8 155.356 380.942 154.932 380.942 154.358V153.234C380.942 152.648 380.8 152.222 380.516 151.954C380.231 151.686 379.813 151.552 379.26 151.552H378.161V156.039ZM387.726 156.663V151.544H385.88V150.92H390.261V151.544H388.415V156.663H387.726ZM390.891 156.663L392.663 150.92H393.877L395.649 156.663H394.935L394.492 155.211H392.047L391.604 156.663H390.891ZM392.22 154.587H394.312L393.327 151.338H393.212L392.22 154.587ZM399.217 156.778C398.802 156.778 398.43 156.704 398.102 156.556C397.773 156.409 397.514 156.187 397.322 155.892C397.136 155.591 397.043 155.216 397.043 154.768V154.595H397.724V154.768C397.724 155.244 397.864 155.599 398.143 155.834C398.422 156.064 398.78 156.179 399.217 156.179C399.666 156.179 400.008 156.078 400.243 155.875C400.478 155.673 400.596 155.419 400.596 155.112C400.596 154.899 400.541 154.729 400.432 154.604C400.328 154.478 400.18 154.377 399.988 154.3C399.797 154.218 399.573 154.147 399.316 154.087L398.889 153.98C398.556 153.893 398.26 153.786 398.003 153.66C397.746 153.534 397.544 153.37 397.396 153.168C397.254 152.96 397.183 152.695 397.183 152.372C397.183 152.049 397.262 151.771 397.421 151.535C397.585 151.3 397.812 151.12 398.102 150.994C398.397 150.868 398.736 150.805 399.119 150.805C399.507 150.805 399.854 150.874 400.161 151.01C400.473 151.142 400.716 151.338 400.891 151.601C401.071 151.858 401.162 152.183 401.162 152.577V152.922H400.481V152.577C400.481 152.298 400.421 152.074 400.3 151.905C400.185 151.735 400.024 151.609 399.816 151.527C399.614 151.445 399.381 151.404 399.119 151.404C398.741 151.404 398.438 151.489 398.208 151.658C397.979 151.823 397.864 152.058 397.864 152.364C397.864 152.566 397.913 152.73 398.011 152.856C398.11 152.982 398.249 153.086 398.43 153.168C398.61 153.245 398.826 153.313 399.078 153.373L399.504 153.48C399.838 153.551 400.136 153.649 400.399 153.775C400.667 153.895 400.88 154.062 401.039 154.276C401.197 154.483 401.277 154.757 401.277 155.096C401.277 155.435 401.192 155.73 401.022 155.982C400.853 156.234 400.612 156.43 400.3 156.573C399.994 156.709 399.633 156.778 399.217 156.778ZM403.158 156.663V150.92H403.847V153.422H403.962L406.39 150.92H407.309L404.511 153.759L407.407 156.663H406.464L403.962 154.111H403.847V156.663H403.158ZM410.865 156.778C410.449 156.778 410.077 156.704 409.749 156.556C409.421 156.409 409.161 156.187 408.97 155.892C408.784 155.591 408.691 155.216 408.691 154.768V154.595H409.372V154.768C409.372 155.244 409.511 155.599 409.79 155.834C410.069 156.064 410.427 156.179 410.865 156.179C411.313 156.179 411.655 156.078 411.89 155.875C412.126 155.673 412.243 155.419 412.243 155.112C412.243 154.899 412.188 154.729 412.079 154.604C411.975 154.478 411.827 154.377 411.636 154.3C411.445 154.218 411.22 154.147 410.963 154.087L410.537 153.98C410.203 153.893 409.908 153.786 409.651 153.66C409.394 153.534 409.191 153.37 409.044 153.168C408.901 152.96 408.83 152.695 408.83 152.372C408.83 152.049 408.91 151.771 409.068 151.535C409.232 151.3 409.459 151.12 409.749 150.994C410.044 150.868 410.384 150.805 410.766 150.805C411.155 150.805 411.502 150.874 411.808 151.01C412.12 151.142 412.363 151.338 412.538 151.601C412.719 151.858 412.809 152.183 412.809 152.577V152.922H412.128V152.577C412.128 152.298 412.068 152.074 411.948 151.905C411.833 151.735 411.672 151.609 411.464 151.527C411.261 151.445 411.029 151.404 410.766 151.404C410.389 151.404 410.085 151.489 409.856 151.658C409.626 151.823 409.511 152.058 409.511 152.364C409.511 152.566 409.56 152.73 409.659 152.856C409.757 152.982 409.897 153.086 410.077 153.168C410.258 153.245 410.474 153.313 410.725 153.373L411.152 153.48C411.486 153.551 411.784 153.649 412.046 153.775C412.314 153.895 412.528 154.062 412.686 154.276C412.845 154.483 412.924 154.757 412.924 155.096C412.924 155.435 412.839 155.73 412.67 155.982C412.5 156.234 412.26 156.43 411.948 156.573C411.641 156.709 411.281 156.778 410.865 156.778Z" fill="#454654"/>
        <path d="M1000.9 176.494H16.4081V177.862H1000.9V176.494Z" fill="#454654" mask="url(#path-9-inside-2_1149_1796)"/>
        <path d="M196.107 223.382V220.982H194.667V219.887H196.107V218.263H194.667V217.167H196.107V214.768H197.264V217.167H198.839V214.768H199.984V217.167H201.436V218.263H199.984V219.887H201.436V220.982H199.984V223.382H198.839V220.982H197.264V223.382H196.107ZM197.264 219.887H198.839V218.263H197.264V219.887ZM204.129 223.382V223.074C204.129 222.763 204.149 222.504 204.19 222.299C204.231 222.086 204.338 221.84 204.51 221.561L207.808 216.109V215.937H202.554V214.768H209.187V216.318L205.716 222.102C205.61 222.283 205.536 222.447 205.495 222.594C205.462 222.734 205.446 222.91 205.446 223.124V223.382H204.129Z" fill="#454654"/>
        <path d="M217.849 223.362V214.747H221.528C222.07 214.747 222.541 214.842 222.943 215.03C223.345 215.219 223.657 215.486 223.879 215.83C224.108 216.167 224.223 216.573 224.223 217.049V217.184C224.223 217.717 224.096 218.144 223.842 218.464C223.587 218.784 223.28 219.018 222.919 219.165V219.362C223.239 219.378 223.489 219.489 223.67 219.694C223.858 219.899 223.953 220.174 223.953 220.519V223.362H222.476V220.728C222.476 220.523 222.418 220.359 222.304 220.236C222.197 220.105 222.02 220.039 221.774 220.039H219.338V223.362H217.849ZM219.338 218.698H221.381C221.807 218.698 222.139 218.587 222.377 218.365C222.623 218.136 222.747 217.832 222.747 217.455V217.344C222.747 216.958 222.628 216.655 222.39 216.433C222.152 216.204 221.815 216.089 221.381 216.089H219.338V218.698ZM228.455 223.534C227.847 223.534 227.31 223.407 226.842 223.152C226.383 222.89 226.022 222.525 225.76 222.057C225.505 221.581 225.378 221.028 225.378 220.396V220.248C225.378 219.608 225.505 219.054 225.76 218.587C226.014 218.119 226.371 217.758 226.83 217.504C227.29 217.241 227.819 217.11 228.418 217.11C229.008 217.11 229.525 217.241 229.968 217.504C230.411 217.758 230.756 218.119 231.002 218.587C231.248 219.054 231.371 219.6 231.371 220.224V220.728H226.806C226.822 221.204 226.99 221.585 227.31 221.873C227.63 222.16 228.024 222.303 228.491 222.303C228.951 222.303 229.291 222.205 229.513 222.008C229.734 221.803 229.903 221.573 230.017 221.319L231.187 221.922C231.072 222.143 230.903 222.381 230.682 222.636C230.469 222.882 230.182 223.095 229.821 223.275C229.46 223.448 229.004 223.534 228.455 223.534ZM226.818 219.657H229.931C229.898 219.255 229.743 218.935 229.464 218.698C229.193 218.46 228.84 218.341 228.405 218.341C227.954 218.341 227.593 218.46 227.322 218.698C227.052 218.935 226.883 219.255 226.818 219.657ZM232.824 223.362V217.282H234.214V217.959H234.424C234.53 217.754 234.707 217.574 234.953 217.418C235.207 217.254 235.544 217.172 235.962 217.172C236.405 217.172 236.762 217.262 237.033 217.442C237.303 217.623 237.508 217.853 237.648 218.131H237.845C237.984 217.853 238.185 217.623 238.448 217.442C238.71 217.262 239.084 217.172 239.568 217.172C239.945 217.172 240.285 217.254 240.589 217.418C240.901 217.582 241.147 217.824 241.327 218.144C241.516 218.464 241.61 218.862 241.61 219.337V223.362H240.195V219.436C240.195 219.083 240.101 218.817 239.912 218.636C239.724 218.447 239.461 218.353 239.125 218.353C238.755 218.353 238.46 218.476 238.239 218.722C238.025 218.96 237.919 219.305 237.919 219.756V223.362H236.516V219.436C236.516 219.083 236.421 218.817 236.233 218.636C236.044 218.447 235.781 218.353 235.445 218.353C235.068 218.353 234.772 218.476 234.559 218.722C234.346 218.96 234.239 219.305 234.239 219.756V223.362H232.824ZM246.231 223.534C245.624 223.534 245.078 223.411 244.594 223.165C244.118 222.91 243.741 222.553 243.462 222.094C243.191 221.626 243.056 221.069 243.056 220.42V220.224C243.056 219.575 243.191 219.018 243.462 218.55C243.741 218.082 244.118 217.725 244.594 217.479C245.078 217.233 245.624 217.11 246.231 217.11C246.838 217.11 247.38 217.233 247.855 217.479C248.331 217.725 248.705 218.082 248.975 218.55C249.254 219.018 249.394 219.575 249.394 220.224V220.42C249.394 221.069 249.254 221.626 248.975 222.094C248.705 222.553 248.331 222.91 247.855 223.165C247.38 223.411 246.838 223.534 246.231 223.534ZM246.231 222.279C246.748 222.279 247.17 222.115 247.499 221.786C247.827 221.45 247.991 220.982 247.991 220.383V220.26C247.991 219.662 247.827 219.198 247.499 218.87C247.17 218.533 246.748 218.365 246.231 218.365C245.714 218.365 245.292 218.533 244.963 218.87C244.635 219.198 244.471 219.662 244.471 220.26V220.383C244.471 220.982 244.635 221.45 244.963 221.786C245.292 222.115 245.714 222.279 246.231 222.279ZM252.048 223.362L250.054 217.282H251.555L253.057 222.328H253.266L254.78 217.282H256.281L254.287 223.362H252.048ZM260.013 223.534C259.406 223.534 258.869 223.407 258.401 223.152C257.941 222.89 257.58 222.525 257.318 222.057C257.064 221.581 256.936 221.028 256.936 220.396V220.248C256.936 219.608 257.064 219.054 257.318 218.587C257.572 218.119 257.929 217.758 258.389 217.504C258.848 217.241 259.377 217.11 259.976 217.11C260.567 217.11 261.084 217.241 261.527 217.504C261.97 217.758 262.314 218.119 262.56 218.587C262.806 219.054 262.93 219.6 262.93 220.224V220.728H258.364C258.38 221.204 258.549 221.585 258.869 221.873C259.188 222.16 259.582 222.303 260.05 222.303C260.509 222.303 260.85 222.205 261.071 222.008C261.293 221.803 261.461 221.573 261.576 221.319L262.745 221.922C262.63 222.143 262.462 222.381 262.24 222.636C262.027 222.882 261.74 223.095 261.379 223.275C261.018 223.448 260.563 223.534 260.013 223.534ZM258.376 219.657H261.49C261.457 219.255 261.301 218.935 261.022 218.698C260.751 218.46 260.399 218.341 259.964 218.341C259.513 218.341 259.152 218.46 258.881 218.698C258.61 218.935 258.442 219.255 258.376 219.657ZM269.402 223.534C268.975 223.534 268.59 223.46 268.245 223.312C267.9 223.156 267.626 222.935 267.42 222.648C267.224 222.361 267.125 222.008 267.125 221.589C267.125 221.179 267.224 220.835 267.42 220.556C267.626 220.277 267.905 220.068 268.257 219.928C268.61 219.78 269.012 219.707 269.463 219.707H271.223V219.337C271.223 219.018 271.125 218.759 270.928 218.562C270.731 218.357 270.423 218.255 270.005 218.255C269.595 218.255 269.283 218.353 269.069 218.55C268.864 218.739 268.729 218.985 268.663 219.288L267.359 218.858C267.457 218.538 267.613 218.246 267.827 217.984C268.048 217.721 268.339 217.512 268.7 217.356C269.061 217.192 269.504 217.11 270.029 217.11C270.825 217.11 271.449 217.311 271.9 217.713C272.359 218.107 272.589 218.681 272.589 219.436V221.823C272.589 222.069 272.704 222.192 272.934 222.192H273.45V223.362H272.454C272.158 223.362 271.916 223.288 271.728 223.14C271.539 222.992 271.445 222.791 271.445 222.537V222.512H271.235C271.186 222.627 271.1 222.767 270.977 222.931C270.854 223.095 270.665 223.239 270.411 223.362C270.165 223.476 269.828 223.534 269.402 223.534ZM269.636 222.377C270.103 222.377 270.485 222.246 270.78 221.983C271.075 221.713 271.223 221.352 271.223 220.9V220.777H269.549C269.246 220.777 269 220.843 268.811 220.974C268.622 221.105 268.528 221.298 268.528 221.553C268.528 221.799 268.626 222 268.823 222.156C269.02 222.303 269.291 222.377 269.636 222.377ZM274.621 223.362V214.747H276.037V223.362H274.621ZM277.83 223.362V214.747H279.245V223.362H277.83ZM285.64 225.872C285.197 225.872 284.836 225.802 284.557 225.663C284.278 225.532 284.077 225.355 283.954 225.134C283.831 224.912 283.769 224.674 283.769 224.42C283.769 224.1 283.843 223.85 283.991 223.669C284.139 223.489 284.286 223.366 284.434 223.3V223.115C284.294 223.033 284.163 222.91 284.04 222.746C283.925 222.582 283.868 222.361 283.868 222.082C283.868 221.795 283.942 221.569 284.089 221.405C284.237 221.233 284.393 221.11 284.557 221.036V220.827L285.492 221.38C285.386 221.397 285.287 221.442 285.197 221.516C285.107 221.581 285.061 221.688 285.061 221.836C285.061 221.991 285.115 222.106 285.221 222.18C285.336 222.254 285.472 222.291 285.628 222.291H287.387C288.085 222.291 288.614 222.443 288.975 222.746C289.344 223.042 289.529 223.46 289.529 224.001V224.1C289.529 224.633 289.344 225.06 288.975 225.38C288.614 225.708 288.085 225.872 287.387 225.872H285.64ZM285.738 224.728H287.51C287.756 224.728 287.945 224.67 288.076 224.555C288.208 224.449 288.273 224.293 288.273 224.088C288.273 223.891 288.208 223.735 288.076 223.62C287.945 223.513 287.756 223.46 287.51 223.46H285.738C285.492 223.46 285.303 223.513 285.172 223.62C285.049 223.735 284.988 223.891 284.988 224.088C284.988 224.293 285.049 224.449 285.172 224.555C285.303 224.67 285.492 224.728 285.738 224.728ZM286.403 220.396C286.723 220.396 286.985 220.301 287.19 220.113C287.404 219.916 287.51 219.649 287.51 219.313C287.51 218.976 287.404 218.714 287.19 218.525C286.985 218.328 286.723 218.23 286.403 218.23C286.091 218.23 285.829 218.328 285.615 218.525C285.41 218.714 285.308 218.976 285.308 219.313C285.308 219.649 285.41 219.916 285.615 220.113C285.829 220.301 286.091 220.396 286.403 220.396ZM286.403 221.54C285.952 221.54 285.541 221.458 285.172 221.294C284.811 221.13 284.524 220.884 284.311 220.556C284.106 220.228 284.003 219.822 284.003 219.337V219.288C284.003 218.812 284.106 218.415 284.311 218.095C284.524 217.766 284.811 217.52 285.172 217.356C285.533 217.192 285.939 217.11 286.391 217.11C286.579 217.11 286.76 217.131 286.932 217.172C287.104 217.204 287.252 217.241 287.375 217.282H289.455V218.365H288.446V218.55C288.519 218.665 288.581 218.8 288.63 218.956C288.679 219.104 288.704 219.272 288.704 219.461C288.704 220.125 288.491 220.638 288.064 220.999C287.646 221.36 287.092 221.54 286.403 221.54ZM293.29 223.534C292.683 223.534 292.145 223.407 291.678 223.152C291.218 222.89 290.857 222.525 290.595 222.057C290.341 221.581 290.213 221.028 290.213 220.396V220.248C290.213 219.608 290.341 219.054 290.595 218.587C290.849 218.119 291.206 217.758 291.666 217.504C292.125 217.241 292.654 217.11 293.253 217.11C293.844 217.11 294.361 217.241 294.804 217.504C295.247 217.758 295.591 218.119 295.837 218.587C296.083 219.054 296.206 219.6 296.206 220.224V220.728H291.641C291.657 221.204 291.825 221.585 292.145 221.873C292.465 222.16 292.859 222.303 293.327 222.303C293.786 222.303 294.127 222.205 294.348 222.008C294.57 221.803 294.738 221.573 294.853 221.319L296.022 221.922C295.907 222.143 295.739 222.381 295.517 222.636C295.304 222.882 295.017 223.095 294.656 223.275C294.295 223.448 293.84 223.534 293.29 223.534ZM291.653 219.657H294.767C294.734 219.255 294.578 218.935 294.299 218.698C294.028 218.46 293.676 218.341 293.241 218.341C292.789 218.341 292.428 218.46 292.158 218.698C291.887 218.935 291.719 219.255 291.653 219.657ZM299.769 223.362C299.375 223.362 299.059 223.247 298.821 223.017C298.591 222.779 298.476 222.459 298.476 222.057V218.451H296.889V217.282H298.476V215.326H299.892V217.282H301.639V218.451H299.892V221.823C299.892 222.069 300.006 222.192 300.236 222.192H301.454V223.362H299.769ZM306.267 223.534C305.216 223.534 304.38 223.239 303.756 222.648C303.133 222.049 302.821 221.192 302.821 220.076V218.033C302.821 216.917 303.133 216.064 303.756 215.473C304.38 214.874 305.216 214.575 306.267 214.575C307.317 214.575 308.125 214.862 308.691 215.436C309.265 216.011 309.552 216.798 309.552 217.799V217.873H308.1V217.762C308.1 217.221 307.948 216.778 307.645 216.433C307.349 216.08 306.89 215.904 306.267 215.904C305.659 215.904 305.179 216.093 304.827 216.47C304.482 216.839 304.31 217.352 304.31 218.008V220.1C304.31 220.749 304.482 221.261 304.827 221.639C305.179 222.016 305.659 222.205 306.267 222.205C306.89 222.205 307.349 222.033 307.645 221.688C307.948 221.335 308.1 220.888 308.1 220.347V220.137H309.552V220.31C309.552 221.311 309.265 222.098 308.691 222.672C308.125 223.247 307.317 223.534 306.267 223.534ZM313.866 223.534C313.259 223.534 312.714 223.411 312.23 223.165C311.754 222.91 311.377 222.553 311.098 222.094C310.827 221.626 310.692 221.069 310.692 220.42V220.224C310.692 219.575 310.827 219.018 311.098 218.55C311.377 218.082 311.754 217.725 312.23 217.479C312.714 217.233 313.259 217.11 313.866 217.11C314.474 217.11 315.015 217.233 315.491 217.479C315.967 217.725 316.34 218.082 316.611 218.55C316.89 219.018 317.029 219.575 317.029 220.224V220.42C317.029 221.069 316.89 221.626 316.611 222.094C316.34 222.553 315.967 222.91 315.491 223.165C315.015 223.411 314.474 223.534 313.866 223.534ZM313.866 222.279C314.383 222.279 314.806 222.115 315.134 221.786C315.462 221.45 315.626 220.982 315.626 220.383V220.26C315.626 219.662 315.462 219.198 315.134 218.87C314.806 218.533 314.383 218.365 313.866 218.365C313.35 218.365 312.927 218.533 312.599 218.87C312.271 219.198 312.107 219.662 312.107 220.26V220.383C312.107 220.982 312.271 221.45 312.599 221.786C312.927 222.115 313.35 222.279 313.866 222.279ZM318.534 223.362V217.282H319.925V218.131H320.134C320.24 217.902 320.433 217.684 320.712 217.479C320.991 217.274 321.414 217.172 321.98 217.172C322.447 217.172 322.862 217.278 323.223 217.492C323.584 217.705 323.862 218 324.059 218.378C324.264 218.755 324.367 219.202 324.367 219.719V223.362H322.952V219.83C322.952 219.337 322.829 218.972 322.583 218.734C322.345 218.488 322.004 218.365 321.561 218.365C321.061 218.365 320.667 218.533 320.38 218.87C320.093 219.198 319.949 219.67 319.949 220.285V223.362H318.534ZM328.25 223.362C327.857 223.362 327.541 223.247 327.303 223.017C327.073 222.779 326.958 222.459 326.958 222.057V218.451H325.371V217.282H326.958V215.326H328.373V217.282H330.121V218.451H328.373V221.823C328.373 222.069 328.488 222.192 328.718 222.192H329.936V223.362H328.25ZM331.561 223.362V217.282H332.952V217.984H333.161C333.251 217.729 333.403 217.545 333.616 217.43C333.83 217.315 334.084 217.258 334.379 217.258H335.118V218.513H334.355C333.944 218.513 333.612 218.624 333.358 218.845C333.103 219.059 332.976 219.391 332.976 219.842V223.362H331.561ZM338.095 223.534C337.668 223.534 337.283 223.46 336.938 223.312C336.593 223.156 336.319 222.935 336.114 222.648C335.917 222.361 335.818 222.008 335.818 221.589C335.818 221.179 335.917 220.835 336.114 220.556C336.319 220.277 336.598 220.068 336.95 219.928C337.303 219.78 337.705 219.707 338.156 219.707H339.916V219.337C339.916 219.018 339.818 218.759 339.621 218.562C339.424 218.357 339.116 218.255 338.698 218.255C338.288 218.255 337.976 218.353 337.763 218.55C337.557 218.739 337.422 218.985 337.356 219.288L336.052 218.858C336.15 218.538 336.306 218.246 336.52 217.984C336.741 217.721 337.032 217.512 337.393 217.356C337.754 217.192 338.197 217.11 338.722 217.11C339.518 217.11 340.142 217.311 340.593 217.713C341.052 218.107 341.282 218.681 341.282 219.436V221.823C341.282 222.069 341.397 222.192 341.627 222.192H342.143V223.362H341.147C340.851 223.362 340.609 223.288 340.421 223.14C340.232 222.992 340.138 222.791 340.138 222.537V222.512H339.928C339.879 222.627 339.793 222.767 339.67 222.931C339.547 223.095 339.358 223.239 339.104 223.362C338.858 223.476 338.521 223.534 338.095 223.534ZM338.329 222.377C338.796 222.377 339.178 222.246 339.473 221.983C339.768 221.713 339.916 221.352 339.916 220.9V220.777H338.242C337.939 220.777 337.693 220.843 337.504 220.974C337.315 221.105 337.221 221.298 337.221 221.553C337.221 221.799 337.32 222 337.516 222.156C337.713 222.303 337.984 222.377 338.329 222.377ZM346.025 223.534C345.434 223.534 344.901 223.411 344.425 223.165C343.949 222.919 343.572 222.562 343.293 222.094C343.022 221.626 342.887 221.064 342.887 220.408V220.236C342.887 219.579 343.022 219.018 343.293 218.55C343.572 218.082 343.949 217.725 344.425 217.479C344.901 217.233 345.434 217.11 346.025 217.11C346.607 217.11 347.104 217.213 347.514 217.418C347.932 217.623 348.269 217.906 348.523 218.267C348.777 218.62 348.941 219.018 349.015 219.461L347.649 219.744C347.617 219.489 347.539 219.26 347.416 219.054C347.292 218.841 347.116 218.673 346.886 218.55C346.665 218.427 346.39 218.365 346.062 218.365C345.725 218.365 345.422 218.439 345.151 218.587C344.889 218.726 344.679 218.94 344.524 219.227C344.376 219.514 344.302 219.858 344.302 220.26V220.383C344.302 220.785 344.376 221.13 344.524 221.417C344.679 221.696 344.889 221.909 345.151 222.057C345.422 222.205 345.725 222.279 346.062 222.279C346.562 222.279 346.94 222.151 347.194 221.897C347.457 221.635 347.621 221.298 347.686 220.888L349.052 221.208C348.954 221.635 348.777 222.024 348.523 222.377C348.269 222.73 347.932 223.013 347.514 223.226C347.104 223.431 346.607 223.534 346.025 223.534ZM352.538 223.362C352.144 223.362 351.828 223.247 351.591 223.017C351.361 222.779 351.246 222.459 351.246 222.057V218.451H349.658V217.282H351.246V215.326H352.661V217.282H354.409V218.451H352.661V221.823C352.661 222.069 352.776 222.192 353.006 222.192H354.224V223.362H352.538ZM360.044 223.362V218.451H358.419V217.282H360.044V216.052C360.044 215.65 360.159 215.334 360.388 215.104C360.626 214.866 360.938 214.747 361.324 214.747H362.899V215.916H361.791C361.562 215.916 361.447 216.039 361.447 216.286V217.282H363.12V218.451H361.447V223.362H360.044ZM366.683 223.46C366.216 223.46 365.801 223.357 365.44 223.152C365.079 222.939 364.8 222.644 364.603 222.266C364.407 221.881 364.308 221.434 364.308 220.925V217.282H365.711V220.814C365.711 221.306 365.83 221.672 366.068 221.909C366.314 222.147 366.659 222.266 367.102 222.266C367.602 222.266 367.996 222.102 368.283 221.774C368.578 221.446 368.726 220.974 368.726 220.359V217.282H370.129V223.362H368.751V222.512H368.541C368.435 222.734 368.238 222.947 367.951 223.152C367.672 223.357 367.249 223.46 366.683 223.46ZM371.928 223.362V217.282H373.319V218.131H373.528C373.635 217.902 373.828 217.684 374.107 217.479C374.386 217.274 374.808 217.172 375.374 217.172C375.842 217.172 376.256 217.278 376.617 217.492C376.978 217.705 377.257 218 377.454 218.378C377.659 218.755 377.762 219.202 377.762 219.719V223.362H376.346V219.83C376.346 219.337 376.223 218.972 375.977 218.734C375.739 218.488 375.399 218.365 374.956 218.365C374.455 218.365 374.062 218.533 373.774 218.87C373.487 219.198 373.344 219.67 373.344 220.285V223.362H371.928ZM382.342 223.534C381.752 223.534 381.218 223.411 380.743 223.165C380.267 222.919 379.889 222.562 379.61 222.094C379.34 221.626 379.204 221.064 379.204 220.408V220.236C379.204 219.579 379.34 219.018 379.61 218.55C379.889 218.082 380.267 217.725 380.743 217.479C381.218 217.233 381.752 217.11 382.342 217.11C382.925 217.11 383.421 217.213 383.831 217.418C384.25 217.623 384.586 217.906 384.84 218.267C385.095 218.62 385.259 219.018 385.333 219.461L383.967 219.744C383.934 219.489 383.856 219.26 383.733 219.054C383.61 218.841 383.433 218.673 383.204 218.55C382.982 218.427 382.707 218.365 382.379 218.365C382.043 218.365 381.739 218.439 381.469 218.587C381.206 218.726 380.997 218.94 380.841 219.227C380.693 219.514 380.619 219.858 380.619 220.26V220.383C380.619 220.785 380.693 221.13 380.841 221.417C380.997 221.696 381.206 221.909 381.469 222.057C381.739 222.205 382.043 222.279 382.379 222.279C382.88 222.279 383.257 222.151 383.511 221.897C383.774 221.635 383.938 221.298 384.004 220.888L385.37 221.208C385.271 221.635 385.095 222.024 384.84 222.377C384.586 222.73 384.25 223.013 383.831 223.226C383.421 223.431 382.925 223.534 382.342 223.534ZM388.856 223.362C388.462 223.362 388.146 223.247 387.908 223.017C387.678 222.779 387.563 222.459 387.563 222.057V218.451H385.976V217.282H387.563V215.326H388.979V217.282H390.726V218.451H388.979V221.823C388.979 222.069 389.093 222.192 389.323 222.192H390.541V223.362H388.856ZM392.166 223.362V217.282H393.581V223.362H392.166ZM392.868 216.507C392.613 216.507 392.392 216.425 392.203 216.261C392.023 216.089 391.932 215.863 391.932 215.584C391.932 215.305 392.023 215.084 392.203 214.92C392.392 214.747 392.613 214.661 392.868 214.661C393.138 214.661 393.36 214.747 393.532 214.92C393.713 215.084 393.803 215.305 393.803 215.584C393.803 215.863 393.713 216.089 393.532 216.261C393.36 216.425 393.138 216.507 392.868 216.507ZM398.255 223.534C397.647 223.534 397.102 223.411 396.618 223.165C396.142 222.91 395.765 222.553 395.486 222.094C395.215 221.626 395.08 221.069 395.08 220.42V220.224C395.08 219.575 395.215 219.018 395.486 218.55C395.765 218.082 396.142 217.725 396.618 217.479C397.102 217.233 397.647 217.11 398.255 217.11C398.862 217.11 399.403 217.233 399.879 217.479C400.355 217.725 400.728 218.082 400.999 218.55C401.278 219.018 401.417 219.575 401.417 220.224V220.42C401.417 221.069 401.278 221.626 400.999 222.094C400.728 222.553 400.355 222.91 399.879 223.165C399.403 223.411 398.862 223.534 398.255 223.534ZM398.255 222.279C398.771 222.279 399.194 222.115 399.522 221.786C399.85 221.45 400.014 220.982 400.014 220.383V220.26C400.014 219.662 399.85 219.198 399.522 218.87C399.194 218.533 398.771 218.365 398.255 218.365C397.738 218.365 397.315 218.533 396.987 218.87C396.659 219.198 396.495 219.662 396.495 220.26V220.383C396.495 220.982 396.659 221.45 396.987 221.786C397.315 222.115 397.738 222.279 398.255 222.279ZM402.922 223.362V217.282H404.313V218.131H404.522C404.629 217.902 404.821 217.684 405.1 217.479C405.379 217.274 405.802 217.172 406.368 217.172C406.835 217.172 407.25 217.278 407.611 217.492C407.972 217.705 408.251 218 408.448 218.378C408.653 218.755 408.755 219.202 408.755 219.719V223.362H407.34V219.83C407.34 219.337 407.217 218.972 406.971 218.734C406.733 218.488 406.392 218.365 405.949 218.365C405.449 218.365 405.055 218.533 404.768 218.87C404.481 219.198 404.337 219.67 404.337 220.285V223.362H402.922ZM413.004 223.534C412.216 223.534 411.568 223.362 411.059 223.017C410.551 222.672 410.243 222.168 410.136 221.503L411.441 221.171C411.498 221.483 411.601 221.729 411.748 221.909C411.896 222.09 412.077 222.217 412.29 222.291C412.511 222.365 412.749 222.402 413.004 222.402C413.389 222.402 413.676 222.332 413.865 222.192C414.062 222.053 414.16 221.877 414.16 221.663C414.16 221.442 414.066 221.278 413.877 221.171C413.697 221.064 413.418 220.974 413.041 220.9L412.659 220.839C412.241 220.757 411.859 220.646 411.515 220.507C411.17 220.359 410.891 220.162 410.678 219.916C410.473 219.662 410.37 219.342 410.37 218.956C410.37 218.365 410.588 217.91 411.022 217.59C411.465 217.27 412.044 217.11 412.758 217.11C413.438 217.11 414 217.262 414.443 217.565C414.886 217.869 415.174 218.275 415.305 218.784L414 219.177C413.935 218.833 413.791 218.591 413.57 218.451C413.348 218.304 413.077 218.23 412.758 218.23C412.429 218.23 412.175 218.287 411.995 218.402C411.822 218.517 411.736 218.681 411.736 218.894C411.736 219.108 411.826 219.268 412.007 219.374C412.187 219.481 412.429 219.559 412.733 219.608L413.114 219.682C413.566 219.764 413.972 219.871 414.333 220.002C414.702 220.133 414.993 220.322 415.206 220.568C415.42 220.814 415.526 221.146 415.526 221.565C415.526 222.197 415.297 222.685 414.837 223.029C414.386 223.366 413.775 223.534 413.004 223.534ZM421.154 223.362V218.451H419.529V217.282H421.154V216.052C421.154 215.65 421.269 215.334 421.498 215.104C421.736 214.866 422.048 214.747 422.433 214.747H424.009V215.916H422.901C422.671 215.916 422.557 216.039 422.557 216.286V217.282H424.23V218.451H422.557V223.362H421.154ZM425.467 223.362V217.282H426.858V217.984H427.067C427.157 217.729 427.309 217.545 427.522 217.43C427.736 217.315 427.99 217.258 428.285 217.258H429.024V218.513H428.261C427.851 218.513 427.518 218.624 427.264 218.845C427.01 219.059 426.882 219.391 426.882 219.842V223.362H425.467ZM432.938 223.534C432.331 223.534 431.785 223.411 431.301 223.165C430.825 222.91 430.448 222.553 430.169 222.094C429.898 221.626 429.763 221.069 429.763 220.42V220.224C429.763 219.575 429.898 219.018 430.169 218.55C430.448 218.082 430.825 217.725 431.301 217.479C431.785 217.233 432.331 217.11 432.938 217.11C433.545 217.11 434.086 217.233 434.562 217.479C435.038 217.725 435.411 218.082 435.682 218.55C435.961 219.018 436.1 219.575 436.1 220.224V220.42C436.1 221.069 435.961 221.626 435.682 222.094C435.411 222.553 435.038 222.91 434.562 223.165C434.086 223.411 433.545 223.534 432.938 223.534ZM432.938 222.279C433.454 222.279 433.877 222.115 434.205 221.786C434.533 221.45 434.697 220.982 434.697 220.383V220.26C434.697 219.662 434.533 219.198 434.205 218.87C433.877 218.533 433.454 218.365 432.938 218.365C432.421 218.365 431.998 218.533 431.67 218.87C431.342 219.198 431.178 219.662 431.178 220.26V220.383C431.178 220.982 431.342 221.45 431.67 221.786C431.998 222.115 432.421 222.279 432.938 222.279ZM437.605 223.362V217.282H438.996V217.959H439.205C439.312 217.754 439.488 217.574 439.734 217.418C439.988 217.254 440.325 217.172 440.743 217.172C441.186 217.172 441.543 217.262 441.814 217.442C442.084 217.623 442.29 217.853 442.429 218.131H442.626C442.765 217.853 442.966 217.623 443.229 217.442C443.491 217.262 443.865 217.172 444.349 217.172C444.726 217.172 445.067 217.254 445.37 217.418C445.682 217.582 445.928 217.824 446.109 218.144C446.297 218.464 446.392 218.862 446.392 219.337V223.362H444.976V219.436C444.976 219.083 444.882 218.817 444.693 218.636C444.505 218.447 444.242 218.353 443.906 218.353C443.537 218.353 443.241 218.476 443.02 218.722C442.806 218.96 442.7 219.305 442.7 219.756V223.362H441.297V219.436C441.297 219.083 441.203 218.817 441.014 218.636C440.825 218.447 440.563 218.353 440.226 218.353C439.849 218.353 439.554 218.476 439.34 218.722C439.127 218.96 439.02 219.305 439.02 219.756V223.362H437.605ZM450.473 223.362L452.836 214.747H455.407L457.77 223.362H456.244L455.727 221.393H452.516L451.999 223.362H450.473ZM452.86 220.039H455.383L454.226 215.67H454.017L452.86 220.039ZM458.912 225.823V217.282H460.303V218.082H460.512C460.652 217.828 460.873 217.602 461.177 217.405C461.488 217.209 461.932 217.11 462.506 217.11C462.998 217.11 463.453 217.233 463.872 217.479C464.298 217.717 464.639 218.07 464.893 218.538C465.148 219.005 465.275 219.567 465.275 220.224V220.42C465.275 221.077 465.148 221.639 464.893 222.106C464.639 222.574 464.302 222.931 463.884 223.177C463.466 223.415 463.006 223.534 462.506 223.534C462.12 223.534 461.796 223.489 461.534 223.398C461.279 223.308 461.07 223.189 460.906 223.042C460.75 222.894 460.627 222.746 460.537 222.599H460.328V225.823H458.912ZM462.087 222.303C462.604 222.303 463.027 222.139 463.355 221.811C463.691 221.475 463.859 220.999 463.859 220.383V220.26C463.859 219.637 463.691 219.161 463.355 218.833C463.019 218.505 462.596 218.341 462.087 218.341C461.579 218.341 461.152 218.505 460.808 218.833C460.471 219.161 460.303 219.637 460.303 220.26V220.383C460.303 220.999 460.471 221.475 460.808 221.811C461.152 222.139 461.579 222.303 462.087 222.303ZM466.772 225.823V217.282H468.163V218.082H468.372C468.511 217.828 468.733 217.602 469.036 217.405C469.348 217.209 469.791 217.11 470.365 217.11C470.858 217.11 471.313 217.233 471.731 217.479C472.158 217.717 472.498 218.07 472.753 218.538C473.007 219.005 473.134 219.567 473.134 220.224V220.42C473.134 221.077 473.007 221.639 472.753 222.106C472.498 222.574 472.162 222.931 471.744 223.177C471.325 223.415 470.866 223.534 470.365 223.534C469.98 223.534 469.656 223.489 469.393 223.398C469.139 223.308 468.93 223.189 468.766 223.042C468.61 222.894 468.487 222.746 468.396 222.599H468.187V225.823H466.772ZM469.947 222.303C470.464 222.303 470.886 222.139 471.214 221.811C471.551 221.475 471.719 220.999 471.719 220.383V220.26C471.719 219.637 471.551 219.161 471.214 218.833C470.878 218.505 470.456 218.341 469.947 218.341C469.438 218.341 469.012 218.505 468.667 218.833C468.331 219.161 468.163 219.637 468.163 220.26V220.383C468.163 220.999 468.331 221.475 468.667 221.811C469.012 222.139 469.438 222.303 469.947 222.303ZM474.632 223.362V214.747H476.047V223.362H474.632ZM477.84 223.362V217.282H479.255V223.362H477.84ZM478.542 216.507C478.287 216.507 478.066 216.425 477.877 216.261C477.697 216.089 477.606 215.863 477.606 215.584C477.606 215.305 477.697 215.084 477.877 214.92C478.066 214.747 478.287 214.661 478.542 214.661C478.812 214.661 479.034 214.747 479.206 214.92C479.387 215.084 479.477 215.305 479.477 215.584C479.477 215.863 479.387 216.089 479.206 216.261C479.034 216.425 478.812 216.507 478.542 216.507ZM483.892 223.534C483.301 223.534 482.768 223.411 482.292 223.165C481.816 222.919 481.439 222.562 481.16 222.094C480.889 221.626 480.754 221.064 480.754 220.408V220.236C480.754 219.579 480.889 219.018 481.16 218.55C481.439 218.082 481.816 217.725 482.292 217.479C482.768 217.233 483.301 217.11 483.892 217.11C484.474 217.11 484.971 217.213 485.381 217.418C485.799 217.623 486.136 217.906 486.39 218.267C486.644 218.62 486.808 219.018 486.882 219.461L485.516 219.744C485.483 219.489 485.405 219.26 485.282 219.054C485.159 218.841 484.983 218.673 484.753 218.55C484.532 218.427 484.257 218.365 483.929 218.365C483.592 218.365 483.289 218.439 483.018 218.587C482.755 218.726 482.546 218.94 482.39 219.227C482.243 219.514 482.169 219.858 482.169 220.26V220.383C482.169 220.785 482.243 221.13 482.39 221.417C482.546 221.696 482.755 221.909 483.018 222.057C483.289 222.205 483.592 222.279 483.929 222.279C484.429 222.279 484.806 222.151 485.061 221.897C485.323 221.635 485.487 221.298 485.553 220.888L486.919 221.208C486.821 221.635 486.644 222.024 486.39 222.377C486.136 222.73 485.799 223.013 485.381 223.226C484.971 223.431 484.474 223.534 483.892 223.534ZM490.178 223.534C489.752 223.534 489.366 223.46 489.022 223.312C488.677 223.156 488.402 222.935 488.197 222.648C488 222.361 487.902 222.008 487.902 221.589C487.902 221.179 488 220.835 488.197 220.556C488.402 220.277 488.681 220.068 489.034 219.928C489.387 219.78 489.789 219.707 490.24 219.707H492V219.337C492 219.018 491.901 218.759 491.704 218.562C491.508 218.357 491.2 218.255 490.781 218.255C490.371 218.255 490.059 218.353 489.846 218.55C489.641 218.739 489.506 218.985 489.44 219.288L488.136 218.858C488.234 218.538 488.39 218.246 488.603 217.984C488.825 217.721 489.116 217.512 489.477 217.356C489.838 217.192 490.281 217.11 490.806 217.11C491.602 217.11 492.225 217.311 492.677 217.713C493.136 218.107 493.366 218.681 493.366 219.436V221.823C493.366 222.069 493.481 222.192 493.71 222.192H494.227V223.362H493.23C492.935 223.362 492.693 223.288 492.504 223.14C492.316 222.992 492.221 222.791 492.221 222.537V222.512H492.012C491.963 222.627 491.877 222.767 491.754 222.931C491.631 223.095 491.442 223.239 491.188 223.362C490.941 223.476 490.605 223.534 490.178 223.534ZM490.412 222.377C490.88 222.377 491.261 222.246 491.557 221.983C491.852 221.713 492 221.352 492 220.9V220.777H490.326C490.023 220.777 489.776 220.843 489.588 220.974C489.399 221.105 489.305 221.298 489.305 221.553C489.305 221.799 489.403 222 489.6 222.156C489.797 222.303 490.068 222.377 490.412 222.377ZM497.279 223.362C496.885 223.362 496.569 223.247 496.331 223.017C496.102 222.779 495.987 222.459 495.987 222.057V218.451H494.399V217.282H495.987V215.326H497.402V217.282H499.15V218.451H497.402V221.823C497.402 222.069 497.517 222.192 497.747 222.192H498.965V223.362H497.279ZM500.59 223.362V217.282H502.005V223.362H500.59ZM501.291 216.507C501.037 216.507 500.815 216.425 500.627 216.261C500.446 216.089 500.356 215.863 500.356 215.584C500.356 215.305 500.446 215.084 500.627 214.92C500.815 214.747 501.037 214.661 501.291 214.661C501.562 214.661 501.783 214.747 501.956 214.92C502.136 215.084 502.226 215.305 502.226 215.584C502.226 215.863 502.136 216.089 501.956 216.261C501.783 216.425 501.562 216.507 501.291 216.507ZM506.678 223.534C506.071 223.534 505.525 223.411 505.041 223.165C504.566 222.91 504.188 222.553 503.909 222.094C503.638 221.626 503.503 221.069 503.503 220.42V220.224C503.503 219.575 503.638 219.018 503.909 218.55C504.188 218.082 504.566 217.725 505.041 217.479C505.525 217.233 506.071 217.11 506.678 217.11C507.285 217.11 507.827 217.233 508.302 217.479C508.778 217.725 509.152 218.082 509.422 218.55C509.701 219.018 509.841 219.575 509.841 220.224V220.42C509.841 221.069 509.701 221.626 509.422 222.094C509.152 222.553 508.778 222.91 508.302 223.165C507.827 223.411 507.285 223.534 506.678 223.534ZM506.678 222.279C507.195 222.279 507.617 222.115 507.946 221.786C508.274 221.45 508.438 220.982 508.438 220.383V220.26C508.438 219.662 508.274 219.198 507.946 218.87C507.617 218.533 507.195 218.365 506.678 218.365C506.161 218.365 505.739 218.533 505.411 218.87C505.082 219.198 504.918 219.662 504.918 220.26V220.383C504.918 220.982 505.082 221.45 505.411 221.786C505.739 222.115 506.161 222.279 506.678 222.279ZM511.346 223.362V217.282H512.736V218.131H512.945C513.052 217.902 513.245 217.684 513.524 217.479C513.803 217.274 514.225 217.172 514.791 217.172C515.259 217.172 515.673 217.278 516.034 217.492C516.395 217.705 516.674 218 516.871 218.378C517.076 218.755 517.179 219.202 517.179 219.719V223.362H515.763V219.83C515.763 219.337 515.64 218.972 515.394 218.734C515.156 218.488 514.816 218.365 514.373 218.365C513.872 218.365 513.479 218.533 513.191 218.87C512.904 219.198 512.761 219.67 512.761 220.285V223.362H511.346ZM523.936 223.534C523.51 223.534 523.124 223.46 522.779 223.312C522.435 223.156 522.16 222.935 521.955 222.648C521.758 222.361 521.659 222.008 521.659 221.589C521.659 221.179 521.758 220.835 521.955 220.556C522.16 220.277 522.439 220.068 522.792 219.928C523.144 219.78 523.546 219.707 523.998 219.707H525.757V219.337C525.757 219.018 525.659 218.759 525.462 218.562C525.265 218.357 524.958 218.255 524.539 218.255C524.129 218.255 523.817 218.353 523.604 218.55C523.399 218.739 523.263 218.985 523.198 219.288L521.893 218.858C521.992 218.538 522.148 218.246 522.361 217.984C522.582 217.721 522.874 217.512 523.235 217.356C523.596 217.192 524.039 217.11 524.564 217.11C525.36 217.11 525.983 217.311 526.434 217.713C526.894 218.107 527.123 218.681 527.123 219.436V221.823C527.123 222.069 527.238 222.192 527.468 222.192H527.985V223.362H526.988C526.693 223.362 526.451 223.288 526.262 223.14C526.073 222.992 525.979 222.791 525.979 222.537V222.512H525.77C525.721 222.627 525.634 222.767 525.511 222.931C525.388 223.095 525.2 223.239 524.945 223.362C524.699 223.476 524.363 223.534 523.936 223.534ZM524.17 222.377C524.638 222.377 525.019 222.246 525.314 221.983C525.61 221.713 525.757 221.352 525.757 220.9V220.777H524.084C523.78 220.777 523.534 220.843 523.345 220.974C523.157 221.105 523.062 221.298 523.062 221.553C523.062 221.799 523.161 222 523.358 222.156C523.555 222.303 523.825 222.377 524.17 222.377ZM529.156 223.362V217.282H530.546V218.131H530.756C530.862 217.902 531.055 217.684 531.334 217.479C531.613 217.274 532.035 217.172 532.601 217.172C533.069 217.172 533.483 217.278 533.844 217.492C534.205 217.705 534.484 218 534.681 218.378C534.886 218.755 534.989 219.202 534.989 219.719V223.362H533.574V219.83C533.574 219.337 533.451 218.972 533.204 218.734C532.967 218.488 532.626 218.365 532.183 218.365C531.683 218.365 531.289 218.533 531.002 218.87C530.715 219.198 530.571 219.67 530.571 220.285V223.362H529.156ZM539.213 223.534C538.72 223.534 538.261 223.415 537.834 223.177C537.408 222.931 537.067 222.574 536.813 222.106C536.559 221.639 536.432 221.077 536.432 220.42V220.224C536.432 219.567 536.559 219.005 536.813 218.538C537.067 218.07 537.404 217.717 537.822 217.479C538.249 217.233 538.712 217.11 539.213 217.11C539.59 217.11 539.91 217.155 540.173 217.245C540.435 217.336 540.644 217.451 540.8 217.59C540.964 217.729 541.091 217.881 541.182 218.045H541.391V214.747H542.794V223.362H541.415V222.562H541.206C541.059 222.808 540.833 223.033 540.529 223.239C540.226 223.435 539.787 223.534 539.213 223.534ZM539.631 222.303C540.14 222.303 540.562 222.139 540.899 221.811C541.235 221.475 541.403 220.999 541.403 220.383V220.26C541.403 219.637 541.235 219.161 540.899 218.833C540.57 218.505 540.148 218.341 539.631 218.341C539.122 218.341 538.696 218.505 538.351 218.833C538.015 219.161 537.847 219.637 537.847 220.26V220.383C537.847 220.999 538.015 221.475 538.351 221.811C538.696 222.139 539.122 222.303 539.631 222.303ZM547.723 223.362V217.282H549.138V223.362H547.723ZM548.424 216.507C548.17 216.507 547.949 216.425 547.76 216.261C547.579 216.089 547.489 215.863 547.489 215.584C547.489 215.305 547.579 215.084 547.76 214.92C547.949 214.747 548.17 214.661 548.424 214.661C548.695 214.661 548.917 214.747 549.089 214.92C549.269 215.084 549.36 215.305 549.36 215.584C549.36 215.863 549.269 216.089 549.089 216.261C548.917 216.425 548.695 216.507 548.424 216.507ZM550.932 223.362V217.282H552.322V218.131H552.532C552.638 217.902 552.831 217.684 553.11 217.479C553.389 217.274 553.811 217.172 554.377 217.172C554.845 217.172 555.259 217.278 555.62 217.492C555.981 217.705 556.26 218 556.457 218.378C556.662 218.755 556.765 219.202 556.765 219.719V223.362H555.35V219.83C555.35 219.337 555.227 218.972 554.98 218.734C554.743 218.488 554.402 218.365 553.959 218.365C553.459 218.365 553.065 218.533 552.778 218.87C552.491 219.198 552.347 219.67 552.347 220.285V223.362H550.932ZM561.013 223.534C560.226 223.534 559.578 223.362 559.069 223.017C558.56 222.672 558.253 222.168 558.146 221.503L559.45 221.171C559.508 221.483 559.61 221.729 559.758 221.909C559.906 222.09 560.086 222.217 560.3 222.291C560.521 222.365 560.759 222.402 561.013 222.402C561.399 222.402 561.686 222.332 561.875 222.192C562.072 222.053 562.17 221.877 562.17 221.663C562.17 221.442 562.076 221.278 561.887 221.171C561.707 221.064 561.428 220.974 561.05 220.9L560.669 220.839C560.25 220.757 559.869 220.646 559.524 220.507C559.18 220.359 558.901 220.162 558.687 219.916C558.482 219.662 558.38 219.342 558.38 218.956C558.38 218.365 558.597 217.91 559.032 217.59C559.475 217.27 560.053 217.11 560.767 217.11C561.448 217.11 562.01 217.262 562.453 217.565C562.896 217.869 563.183 218.275 563.315 218.784L562.01 219.177C561.945 218.833 561.801 218.591 561.579 218.451C561.358 218.304 561.087 218.23 560.767 218.23C560.439 218.23 560.185 218.287 560.004 218.402C559.832 218.517 559.746 218.681 559.746 218.894C559.746 219.108 559.836 219.268 560.017 219.374C560.197 219.481 560.439 219.559 560.743 219.608L561.124 219.682C561.575 219.764 561.981 219.871 562.342 220.002C562.712 220.133 563.003 220.322 563.216 220.568C563.429 220.814 563.536 221.146 563.536 221.565C563.536 222.197 563.306 222.685 562.847 223.029C562.396 223.366 561.785 223.534 561.013 223.534ZM567.162 223.362C566.768 223.362 566.452 223.247 566.214 223.017C565.984 222.779 565.87 222.459 565.87 222.057V218.451H564.282V217.282H565.87V215.326H567.285V217.282H569.032V218.451H567.285V221.823C567.285 222.069 567.4 222.192 567.629 222.192H568.848V223.362H567.162ZM573.037 223.534C572.43 223.534 571.893 223.407 571.425 223.152C570.966 222.89 570.605 222.525 570.342 222.057C570.088 221.581 569.961 221.028 569.961 220.396V220.248C569.961 219.608 570.088 219.054 570.342 218.587C570.597 218.119 570.954 217.758 571.413 217.504C571.872 217.241 572.402 217.11 573 217.11C573.591 217.11 574.108 217.241 574.551 217.504C574.994 217.758 575.339 218.119 575.585 218.587C575.831 219.054 575.954 219.6 575.954 220.224V220.728H571.388C571.405 221.204 571.573 221.585 571.893 221.873C572.213 222.16 572.607 222.303 573.074 222.303C573.534 222.303 573.874 222.205 574.096 222.008C574.317 221.803 574.485 221.573 574.6 221.319L575.769 221.922C575.654 222.143 575.486 222.381 575.265 222.636C575.051 222.882 574.764 223.095 574.403 223.275C574.042 223.448 573.587 223.534 573.037 223.534ZM571.401 219.657H574.514C574.481 219.255 574.325 218.935 574.046 218.698C573.776 218.46 573.423 218.341 572.988 218.341C572.537 218.341 572.176 218.46 571.905 218.698C571.634 218.935 571.466 219.255 571.401 219.657ZM579.29 223.534C578.863 223.534 578.477 223.46 578.133 223.312C577.788 223.156 577.513 222.935 577.308 222.648C577.111 222.361 577.013 222.008 577.013 221.589C577.013 221.179 577.111 220.835 577.308 220.556C577.513 220.277 577.792 220.068 578.145 219.928C578.498 219.78 578.9 219.707 579.351 219.707H581.111V219.337C581.111 219.018 581.012 218.759 580.815 218.562C580.619 218.357 580.311 218.255 579.893 218.255C579.482 218.255 579.171 218.353 578.957 218.55C578.752 218.739 578.617 218.985 578.551 219.288L577.247 218.858C577.345 218.538 577.501 218.246 577.714 217.984C577.936 217.721 578.227 217.512 578.588 217.356C578.949 217.192 579.392 217.11 579.917 217.11C580.713 217.11 581.336 217.311 581.788 217.713C582.247 218.107 582.477 218.681 582.477 219.436V221.823C582.477 222.069 582.592 222.192 582.821 222.192H583.338V223.362H582.341C582.046 223.362 581.804 223.288 581.615 223.14C581.427 222.992 581.332 222.791 581.332 222.537V222.512H581.123C581.074 222.627 580.988 222.767 580.865 222.931C580.742 223.095 580.553 223.239 580.299 223.362C580.052 223.476 579.716 223.534 579.29 223.534ZM579.523 222.377C579.991 222.377 580.372 222.246 580.668 221.983C580.963 221.713 581.111 221.352 581.111 220.9V220.777H579.437C579.134 220.777 578.888 220.843 578.699 220.974C578.51 221.105 578.416 221.298 578.416 221.553C578.416 221.799 578.514 222 578.711 222.156C578.908 222.303 579.179 222.377 579.523 222.377ZM586.863 223.534C586.371 223.534 585.911 223.415 585.485 223.177C585.058 222.931 584.717 222.574 584.463 222.106C584.209 221.639 584.082 221.077 584.082 220.42V220.224C584.082 219.567 584.209 219.005 584.463 218.538C584.717 218.07 585.054 217.717 585.472 217.479C585.899 217.233 586.362 217.11 586.863 217.11C587.24 217.11 587.56 217.155 587.823 217.245C588.085 217.336 588.294 217.451 588.45 217.59C588.614 217.729 588.742 217.881 588.832 218.045H589.041V214.747H590.444V223.362H589.066V222.562H588.856C588.709 222.808 588.483 223.033 588.18 223.239C587.876 223.435 587.437 223.534 586.863 223.534ZM587.281 222.303C587.79 222.303 588.212 222.139 588.549 221.811C588.885 221.475 589.053 220.999 589.053 220.383V220.26C589.053 219.637 588.885 219.161 588.549 218.833C588.221 218.505 587.798 218.341 587.281 218.341C586.773 218.341 586.346 218.505 586.001 218.833C585.665 219.161 585.497 219.637 585.497 220.26V220.383C585.497 220.999 585.665 221.475 586.001 221.811C586.346 222.139 586.773 222.303 587.281 222.303ZM597.859 223.534C597.367 223.534 596.907 223.415 596.481 223.177C596.054 222.931 595.714 222.574 595.459 222.106C595.205 221.639 595.078 221.077 595.078 220.42V220.224C595.078 219.567 595.205 219.005 595.459 218.538C595.714 218.07 596.05 217.717 596.468 217.479C596.895 217.233 597.358 217.11 597.859 217.11C598.236 217.11 598.556 217.155 598.819 217.245C599.081 217.336 599.291 217.451 599.446 217.59C599.611 217.729 599.738 217.881 599.828 218.045H600.037V214.747H601.44V223.362H600.062V222.562H599.853C599.705 222.808 599.479 223.033 599.176 223.239C598.872 223.435 598.433 223.534 597.859 223.534ZM598.277 222.303C598.786 222.303 599.209 222.139 599.545 221.811C599.881 221.475 600.049 220.999 600.049 220.383V220.26C600.049 219.637 599.881 219.161 599.545 218.833C599.217 218.505 598.794 218.341 598.277 218.341C597.769 218.341 597.342 218.505 596.998 218.833C596.661 219.161 596.493 219.637 596.493 220.26V220.383C596.493 220.999 596.661 221.475 596.998 221.811C597.342 222.139 597.769 222.303 598.277 222.303ZM606.112 223.534C605.505 223.534 604.96 223.411 604.476 223.165C604 222.91 603.622 222.553 603.343 222.094C603.073 221.626 602.937 221.069 602.937 220.42V220.224C602.937 219.575 603.073 219.018 603.343 218.55C603.622 218.082 604 217.725 604.476 217.479C604.96 217.233 605.505 217.11 606.112 217.11C606.719 217.11 607.261 217.233 607.737 217.479C608.213 217.725 608.586 218.082 608.857 218.55C609.135 219.018 609.275 219.575 609.275 220.224V220.42C609.275 221.069 609.135 221.626 608.857 222.094C608.586 222.553 608.213 222.91 607.737 223.165C607.261 223.411 606.719 223.534 606.112 223.534ZM606.112 222.279C606.629 222.279 607.052 222.115 607.38 221.786C607.708 221.45 607.872 220.982 607.872 220.383V220.26C607.872 219.662 607.708 219.198 607.38 218.87C607.052 218.533 606.629 218.365 606.112 218.365C605.595 218.365 605.173 218.533 604.845 218.87C604.517 219.198 604.353 219.662 604.353 220.26V220.383C604.353 220.982 604.517 221.45 604.845 221.786C605.173 222.115 605.595 222.279 606.112 222.279ZM616.23 223.362C615.836 223.362 615.52 223.247 615.282 223.017C615.053 222.779 614.938 222.459 614.938 222.057V218.451H613.35V217.282H614.938V215.326H616.353V217.282H618.1V218.451H616.353V221.823C616.353 222.069 616.468 222.192 616.698 222.192H617.916V223.362H616.23ZM619.541 223.362V214.747H620.956V218.082H621.165C621.231 217.943 621.337 217.803 621.485 217.664C621.633 217.524 621.825 217.41 622.063 217.319C622.31 217.229 622.617 217.184 622.986 217.184C623.454 217.184 623.868 217.291 624.229 217.504C624.59 217.709 624.869 218 625.066 218.378C625.271 218.755 625.374 219.202 625.374 219.719V223.362H623.959V219.83C623.959 219.337 623.835 218.972 623.589 218.734C623.351 218.488 623.011 218.365 622.568 218.365C622.068 218.365 621.674 218.533 621.387 218.87C621.099 219.198 620.956 219.67 620.956 220.285V223.362H619.541ZM627.112 223.362V217.282H628.527V223.362H627.112ZM627.813 216.507C627.559 216.507 627.337 216.425 627.149 216.261C626.968 216.089 626.878 215.863 626.878 215.584C626.878 215.305 626.968 215.084 627.149 214.92C627.337 214.747 627.559 214.661 627.813 214.661C628.084 214.661 628.305 214.747 628.478 214.92C628.658 215.084 628.748 215.305 628.748 215.584C628.748 215.863 628.658 216.089 628.478 216.261C628.305 216.425 628.084 216.507 627.813 216.507ZM632.831 223.534C632.043 223.534 631.395 223.362 630.887 223.017C630.378 222.672 630.07 222.168 629.964 221.503L631.268 221.171C631.325 221.483 631.428 221.729 631.576 221.909C631.723 222.09 631.904 222.217 632.117 222.291C632.339 222.365 632.577 222.402 632.831 222.402C633.217 222.402 633.504 222.332 633.692 222.192C633.889 222.053 633.988 221.877 633.988 221.663C633.988 221.442 633.893 221.278 633.705 221.171C633.524 221.064 633.245 220.974 632.868 220.9L632.486 220.839C632.068 220.757 631.686 220.646 631.342 220.507C630.997 220.359 630.718 220.162 630.505 219.916C630.3 219.662 630.197 219.342 630.197 218.956C630.197 218.365 630.415 217.91 630.85 217.59C631.293 217.27 631.871 217.11 632.585 217.11C633.266 217.11 633.828 217.262 634.271 217.565C634.714 217.869 635.001 218.275 635.132 218.784L633.828 219.177C633.762 218.833 633.619 218.591 633.397 218.451C633.176 218.304 632.905 218.23 632.585 218.23C632.257 218.23 632.002 218.287 631.822 218.402C631.65 218.517 631.563 218.681 631.563 218.894C631.563 219.108 631.654 219.268 631.834 219.374C632.015 219.481 632.257 219.559 632.56 219.608L632.942 219.682C633.393 219.764 633.799 219.871 634.16 220.002C634.529 220.133 634.82 220.322 635.034 220.568C635.247 220.814 635.354 221.146 635.354 221.565C635.354 222.197 635.124 222.685 634.665 223.029C634.213 223.366 633.602 223.534 632.831 223.534ZM637.66 223.534C637.348 223.534 637.085 223.431 636.872 223.226C636.667 223.021 636.565 222.759 636.565 222.439C636.565 222.127 636.667 221.868 636.872 221.663C637.085 221.458 637.348 221.356 637.66 221.356C637.971 221.356 638.23 221.458 638.435 221.663C638.64 221.868 638.743 222.131 638.743 222.451C638.743 222.771 638.64 223.033 638.435 223.239C638.23 223.435 637.971 223.534 637.66 223.534ZM640.626 223.534C640.314 223.534 640.051 223.431 639.838 223.226C639.633 223.021 639.53 222.759 639.53 222.439C639.53 222.127 639.633 221.868 639.838 221.663C640.051 221.458 640.314 221.356 640.626 221.356C640.937 221.356 641.196 221.458 641.401 221.663C641.606 221.868 641.708 222.131 641.708 222.451C641.708 222.771 641.606 223.033 641.401 223.239C641.196 223.435 640.937 223.534 640.626 223.534ZM643.591 223.534C643.28 223.534 643.017 223.431 642.804 223.226C642.599 223.021 642.496 222.759 642.496 222.439C642.496 222.127 642.599 221.868 642.804 221.663C643.017 221.458 643.28 221.356 643.591 221.356C643.903 221.356 644.161 221.458 644.367 221.663C644.572 221.868 644.674 222.131 644.674 222.451C644.674 222.771 644.572 223.033 644.367 223.239C644.161 223.435 643.903 223.534 643.591 223.534Z" fill="#454654"/>
        <rect x="194.505" y="240.418" width="77.0306" height="18.4592" rx="9.22958" stroke="#454654" stroke-width="0.683672"/>
        <rect x="285.209" y="239.734" width="19.8265" height="19.8265" rx="9.91325" stroke="#454654" stroke-width="0.683672"/>
        <rect x="318.709" y="240.418" width="122.255" height="18.4592" rx="2.39285" stroke="#454654" stroke-width="0.683672"/>
        <rect x="180.831" y="198.03" width="655.642" height="74.5203" rx="5.12754" stroke="#454654" stroke-width="0.683672"/>
        <rect x="16.75" y="16.847" width="983.804" height="273.218" rx="5.12754" stroke="#454654" stroke-width="0.683672"/>
        <line x1="1.91402e-08" y1="30.4742" x2="101.183" y2="30.4742" stroke="#5C5E70" stroke-width="0.437876" stroke-dasharray="2.05 2.05"/>
        <line x1="1.91402e-08" y1="55.4251" x2="101.867" y2="55.4251" stroke="#5C5E70" stroke-width="0.437876" stroke-dasharray="2.05 2.05"/>
        <line x1="101.648" y1="623.607" x2="101.648" y2="0.0976562" stroke="#5C5E70" stroke-width="0.437876" stroke-dasharray="2.05 2.05"/>
        <line x1="193.944" y1="265.036" x2="193.944" y2="190.516" stroke="#5C5E70" stroke-width="0.437876" stroke-dasharray="2.05 2.05"/>
        <line x1="209.668" y1="218.547" x2="209.668" y2="190.516" stroke="#5C5E70" stroke-width="0.437876" stroke-dasharray="2.05 2.05"/>
        <line x1="256.158" y1="260.12" x2="256.158" y2="240.978" stroke="#5C5E70" stroke-width="0.437876" stroke-dasharray="2.05 2.05"/>
        <line x1="269.148" y1="252.487" x2="269.148" y2="233.344" stroke="#5C5E70" stroke-width="0.437876" stroke-dasharray="2.05 2.05"/>
        <line x1="290.342" y1="252.487" x2="290.342" y2="233.344" stroke="#5C5E70" stroke-width="0.437876" stroke-dasharray="2.05 2.05"/>
        <line x1="302.648" y1="260.12" x2="302.648" y2="240.978" stroke="#5C5E70" stroke-width="0.437876" stroke-dasharray="2.05 2.05"/>
        <line x1="388.841" y1="252.487" x2="388.841" y2="233.344" stroke="#5C5E70" stroke-width="0.437876" stroke-dasharray="2.05 2.05"/>
        <line x1="403.831" y1="252.363" x2="403.831" y2="233.22" stroke="#5C5E70" stroke-width="0.437876" stroke-dasharray="2.05 2.05"/>
        <line x1="101.867" y1="190.916" x2="1000.9" y2="190.916" stroke="#5C5E70" stroke-width="0.437876" stroke-dasharray="2.05 2.05"/>
        <line x1="194.163" y1="217.779" x2="645.387" y2="217.779" stroke="#5C5E70" stroke-width="0.437876" stroke-dasharray="2.05 2.05"/>
        <line x1="194.163" y1="206.779" x2="645.387" y2="206.779" stroke="#5C5E70" stroke-width="0.437876" stroke-dasharray="2.05 2.05"/>
        <line x1="194.163" y1="233.04" x2="645.387" y2="233.04" stroke="#5C5E70" stroke-width="0.437876" stroke-dasharray="2.05 2.05"/>
        <line x1="36.6994" y1="623.607" x2="36.6994" y2="0.0976562" stroke="#5C5E70" stroke-width="0.437876" stroke-dasharray="2.05 2.05"/>
    </g>
    <rect x="0.341836" y="0.439004" width="436.316" height="242.775" rx="5.12754" stroke="url(#paint0_linear_1149_1796)" stroke-width="0.683672"/>
    <defs>
        <linearGradient id="paint0_linear_1149_1796" x1="231.811" y1="0.097168" x2="231.811" y2="243.556" gradientUnits="userSpaceOnUse">
            <stop stop-color="#454654"/>
            <stop offset="1" stop-color="#22232A"/>
        </linearGradient>
        <clipPath id="clip0_1149_1796">
            <rect y="0.097168" width="437" height="243.459" rx="5.46938" fill="white"/>
        </clipPath>
    </defs>
</svg>
